G75*
%MOIN*%
%OFA0B0*%
%FSLAX25Y25*%
%IPPOS*%
%LPD*%
%AMOC8*
5,1,8,0,0,1.08239X$1,22.5*
%
%ADD10C,0.00004*%
%ADD11C,0.00000*%
%ADD12R,0.07087X0.07087*%
D10*
X0083202Y0020583D02*
X0082929Y0078890D01*
X0076986Y0087044D01*
X0001002Y0086874D01*
X0001104Y0100001D01*
X0057883Y0099830D01*
X0076830Y0099977D01*
X0082822Y0106478D01*
X0082821Y0106477D02*
X0082847Y0127998D01*
X0086616Y0132487D01*
X0117286Y0132430D01*
X0117286Y0120173D01*
X0127589Y0120173D01*
X0127589Y0132178D01*
X0133527Y0132182D01*
X0133615Y0087052D01*
X0145636Y0087052D01*
X0145628Y0087052D02*
X0190098Y0087145D01*
X0196507Y0094247D01*
X0196508Y0094248D02*
X0203733Y0094192D01*
X0203722Y0094193D02*
X0203847Y0094194D01*
X0203972Y0094198D01*
X0204096Y0094206D01*
X0204220Y0094218D01*
X0204344Y0094234D01*
X0204467Y0094254D01*
X0204590Y0094278D01*
X0204712Y0094306D01*
X0204832Y0094337D01*
X0204952Y0094373D01*
X0205071Y0094412D01*
X0205188Y0094455D01*
X0205304Y0094502D01*
X0205418Y0094552D01*
X0205530Y0094606D01*
X0205641Y0094663D01*
X0205750Y0094724D01*
X0205857Y0094789D01*
X0205962Y0094856D01*
X0206065Y0094927D01*
X0206165Y0095002D01*
X0206263Y0095079D01*
X0206359Y0095159D01*
X0206451Y0095243D01*
X0206542Y0095329D01*
X0206629Y0095418D01*
X0206713Y0095510D01*
X0206795Y0095605D01*
X0206873Y0095702D01*
X0206949Y0095801D01*
X0207021Y0095903D01*
X0207090Y0096007D01*
X0207156Y0096113D01*
X0207218Y0096222D01*
X0207276Y0096332D01*
X0207332Y0096444D01*
X0207383Y0096557D01*
X0207431Y0096673D01*
X0207476Y0096789D01*
X0207516Y0096907D01*
X0207553Y0097027D01*
X0207586Y0097147D01*
X0207615Y0097268D01*
X0207640Y0097391D01*
X0207662Y0097514D01*
X0207679Y0097637D01*
X0207693Y0097761D01*
X0207703Y0097886D01*
X0207708Y0098011D01*
X0207710Y0098135D01*
X0207708Y0098260D01*
X0207702Y0098385D01*
X0207691Y0098509D01*
X0207677Y0098633D01*
X0207659Y0098757D01*
X0207637Y0098880D01*
X0207611Y0099002D01*
X0207582Y0099123D01*
X0207548Y0099243D01*
X0207511Y0099362D01*
X0207470Y0099480D01*
X0207425Y0099597D01*
X0207377Y0099712D01*
X0207325Y0099825D01*
X0207269Y0099937D01*
X0207210Y0100047D01*
X0207147Y0100155D01*
X0207081Y0100261D01*
X0207012Y0100365D01*
X0206939Y0100466D01*
X0206863Y0100565D01*
X0206784Y0100662D01*
X0206702Y0100756D01*
X0206617Y0100848D01*
X0206530Y0100937D01*
X0206439Y0101023D01*
X0206346Y0101106D01*
X0206250Y0101186D01*
X0206152Y0101263D01*
X0206051Y0101336D01*
X0205948Y0101407D01*
X0205843Y0101474D01*
X0205736Y0101538D01*
X0205627Y0101599D01*
X0205515Y0101656D01*
X0205403Y0101709D01*
X0205288Y0101759D01*
X0205172Y0101805D01*
X0205055Y0101847D01*
X0204936Y0101886D01*
X0204816Y0101921D01*
X0204695Y0101952D01*
X0204574Y0101979D01*
X0204451Y0102003D01*
X0204328Y0102022D01*
X0204204Y0102038D01*
X0204079Y0102049D01*
X0203955Y0102057D01*
X0203830Y0102061D01*
X0203829Y0102061D02*
X0196604Y0102117D01*
X0196568Y0102134D02*
X0142406Y0101948D01*
X0142406Y0125596D01*
X0142406Y0125595D02*
X0142385Y0184594D01*
X0142386Y0184588D02*
X0142386Y0201767D01*
X0153159Y0201767D01*
X0153041Y0190643D01*
X0148398Y0190525D01*
X0148516Y0181988D01*
X0158152Y0182106D01*
X0158154Y0182107D02*
X0158154Y0123176D01*
X0158153Y0123173D02*
X0158155Y0118265D01*
X0296118Y0118192D01*
X0296118Y0123717D01*
X0296119Y0123709D02*
X0296275Y0182335D01*
X0296277Y0182334D02*
X0311137Y0182319D01*
X0311162Y0191943D01*
X0304131Y0191959D01*
X0303989Y0201995D01*
X0316758Y0202023D01*
X0316763Y0202021D02*
X0316710Y0125987D01*
X0316710Y0125994D02*
X0316712Y0102071D01*
X0296116Y0102005D01*
X0254636Y0102060D01*
X0254643Y0102059D02*
X0251257Y0102059D01*
X0251263Y0102061D02*
X0251139Y0102054D01*
X0251016Y0102044D01*
X0250892Y0102030D01*
X0250770Y0102012D01*
X0250648Y0101990D01*
X0250527Y0101965D01*
X0250406Y0101935D01*
X0250287Y0101902D01*
X0250169Y0101864D01*
X0250052Y0101824D01*
X0249936Y0101779D01*
X0249822Y0101731D01*
X0249709Y0101679D01*
X0249598Y0101624D01*
X0249489Y0101565D01*
X0249382Y0101503D01*
X0249277Y0101437D01*
X0249174Y0101368D01*
X0249073Y0101296D01*
X0248975Y0101220D01*
X0248879Y0101142D01*
X0248785Y0101061D01*
X0248694Y0100976D01*
X0248606Y0100889D01*
X0248521Y0100799D01*
X0248439Y0100706D01*
X0248359Y0100611D01*
X0248283Y0100514D01*
X0248210Y0100414D01*
X0248140Y0100311D01*
X0248073Y0100207D01*
X0248010Y0100100D01*
X0247950Y0099992D01*
X0247893Y0099882D01*
X0247840Y0099769D01*
X0247791Y0099656D01*
X0247745Y0099541D01*
X0247703Y0099424D01*
X0247665Y0099306D01*
X0247630Y0099187D01*
X0247599Y0099067D01*
X0247573Y0098946D01*
X0247549Y0098824D01*
X0247530Y0098702D01*
X0247515Y0098579D01*
X0247503Y0098455D01*
X0247496Y0098332D01*
X0247492Y0098208D01*
X0247493Y0098084D01*
X0247497Y0097960D01*
X0247505Y0097836D01*
X0247517Y0097713D01*
X0247533Y0097590D01*
X0247553Y0097468D01*
X0247577Y0097346D01*
X0247605Y0097225D01*
X0247636Y0097105D01*
X0247671Y0096987D01*
X0247710Y0096869D01*
X0247753Y0096753D01*
X0247800Y0096638D01*
X0247850Y0096524D01*
X0247903Y0096412D01*
X0247960Y0096302D01*
X0248021Y0096194D01*
X0248085Y0096088D01*
X0248152Y0095984D01*
X0248223Y0095882D01*
X0248297Y0095783D01*
X0248373Y0095685D01*
X0248453Y0095591D01*
X0248536Y0095499D01*
X0248622Y0095409D01*
X0248711Y0095322D01*
X0248802Y0095239D01*
X0248896Y0095158D01*
X0248992Y0095080D01*
X0249091Y0095005D01*
X0249192Y0094933D01*
X0249296Y0094865D01*
X0249401Y0094800D01*
X0249509Y0094738D01*
X0249618Y0094680D01*
X0249729Y0094625D01*
X0249842Y0094574D01*
X0249957Y0094527D01*
X0250073Y0094483D01*
X0250190Y0094443D01*
X0250308Y0094406D01*
X0250428Y0094373D01*
X0250548Y0094345D01*
X0250670Y0094319D01*
X0250792Y0094298D01*
X0250915Y0094281D01*
X0251038Y0094268D01*
X0251161Y0094258D01*
X0251285Y0094253D01*
X0251409Y0094251D01*
X0251533Y0094253D01*
X0251521Y0094254D02*
X0257655Y0094249D01*
X0257706Y0079975D01*
X0257703Y0079986D02*
X0257429Y0020926D01*
X0257427Y0020927D02*
X0244592Y0020943D01*
X0244592Y0011089D01*
X0251623Y0011073D01*
X0251623Y0001463D01*
X0236945Y0001293D01*
X0236941Y0001295D02*
X0236993Y0077329D01*
X0120608Y0077334D01*
X0120711Y0114690D01*
X0117694Y0114722D01*
X0117591Y0077373D01*
X0117313Y0077373D01*
X0099266Y0077292D01*
X0099089Y0018293D01*
X0099088Y0018299D02*
X0099088Y0001120D01*
X0089221Y0001002D01*
X0089221Y0009761D01*
X0093864Y0009879D01*
X0093864Y0020584D01*
X0083205Y0020584D01*
D11*
X0091901Y0019802D02*
X0091903Y0019881D01*
X0091909Y0019960D01*
X0091919Y0020039D01*
X0091933Y0020117D01*
X0091950Y0020194D01*
X0091972Y0020270D01*
X0091997Y0020345D01*
X0092027Y0020418D01*
X0092059Y0020490D01*
X0092096Y0020561D01*
X0092136Y0020629D01*
X0092179Y0020695D01*
X0092225Y0020759D01*
X0092275Y0020821D01*
X0092328Y0020880D01*
X0092383Y0020936D01*
X0092442Y0020990D01*
X0092503Y0021040D01*
X0092566Y0021088D01*
X0092632Y0021132D01*
X0092700Y0021173D01*
X0092770Y0021210D01*
X0092841Y0021244D01*
X0092915Y0021274D01*
X0092989Y0021300D01*
X0093065Y0021322D01*
X0093142Y0021341D01*
X0093220Y0021356D01*
X0093298Y0021367D01*
X0093377Y0021374D01*
X0093456Y0021377D01*
X0093535Y0021376D01*
X0093614Y0021371D01*
X0093693Y0021362D01*
X0093771Y0021349D01*
X0093848Y0021332D01*
X0093925Y0021312D01*
X0094000Y0021287D01*
X0094074Y0021259D01*
X0094147Y0021227D01*
X0094217Y0021192D01*
X0094286Y0021153D01*
X0094353Y0021110D01*
X0094418Y0021064D01*
X0094480Y0021016D01*
X0094540Y0020964D01*
X0094597Y0020909D01*
X0094651Y0020851D01*
X0094702Y0020791D01*
X0094750Y0020728D01*
X0094795Y0020663D01*
X0094837Y0020595D01*
X0094875Y0020526D01*
X0094909Y0020455D01*
X0094940Y0020382D01*
X0094968Y0020307D01*
X0094991Y0020232D01*
X0095011Y0020155D01*
X0095027Y0020078D01*
X0095039Y0019999D01*
X0095047Y0019921D01*
X0095051Y0019842D01*
X0095051Y0019762D01*
X0095047Y0019683D01*
X0095039Y0019605D01*
X0095027Y0019526D01*
X0095011Y0019449D01*
X0094991Y0019372D01*
X0094968Y0019297D01*
X0094940Y0019222D01*
X0094909Y0019149D01*
X0094875Y0019078D01*
X0094837Y0019009D01*
X0094795Y0018941D01*
X0094750Y0018876D01*
X0094702Y0018813D01*
X0094651Y0018753D01*
X0094597Y0018695D01*
X0094540Y0018640D01*
X0094480Y0018588D01*
X0094418Y0018540D01*
X0094353Y0018494D01*
X0094286Y0018451D01*
X0094217Y0018412D01*
X0094147Y0018377D01*
X0094074Y0018345D01*
X0094000Y0018317D01*
X0093925Y0018292D01*
X0093848Y0018272D01*
X0093771Y0018255D01*
X0093693Y0018242D01*
X0093614Y0018233D01*
X0093535Y0018228D01*
X0093456Y0018227D01*
X0093377Y0018230D01*
X0093298Y0018237D01*
X0093220Y0018248D01*
X0093142Y0018263D01*
X0093065Y0018282D01*
X0092989Y0018304D01*
X0092915Y0018330D01*
X0092841Y0018360D01*
X0092770Y0018394D01*
X0092700Y0018431D01*
X0092632Y0018472D01*
X0092566Y0018516D01*
X0092503Y0018564D01*
X0092442Y0018614D01*
X0092383Y0018668D01*
X0092328Y0018724D01*
X0092275Y0018783D01*
X0092225Y0018845D01*
X0092179Y0018909D01*
X0092136Y0018975D01*
X0092096Y0019043D01*
X0092059Y0019114D01*
X0092027Y0019186D01*
X0091997Y0019259D01*
X0091972Y0019334D01*
X0091950Y0019410D01*
X0091933Y0019487D01*
X0091919Y0019565D01*
X0091909Y0019644D01*
X0091903Y0019723D01*
X0091901Y0019802D01*
X0091901Y0010404D02*
X0091903Y0010483D01*
X0091909Y0010562D01*
X0091919Y0010641D01*
X0091933Y0010719D01*
X0091950Y0010796D01*
X0091972Y0010872D01*
X0091997Y0010947D01*
X0092027Y0011020D01*
X0092059Y0011092D01*
X0092096Y0011163D01*
X0092136Y0011231D01*
X0092179Y0011297D01*
X0092225Y0011361D01*
X0092275Y0011423D01*
X0092328Y0011482D01*
X0092383Y0011538D01*
X0092442Y0011592D01*
X0092503Y0011642D01*
X0092566Y0011690D01*
X0092632Y0011734D01*
X0092700Y0011775D01*
X0092770Y0011812D01*
X0092841Y0011846D01*
X0092915Y0011876D01*
X0092989Y0011902D01*
X0093065Y0011924D01*
X0093142Y0011943D01*
X0093220Y0011958D01*
X0093298Y0011969D01*
X0093377Y0011976D01*
X0093456Y0011979D01*
X0093535Y0011978D01*
X0093614Y0011973D01*
X0093693Y0011964D01*
X0093771Y0011951D01*
X0093848Y0011934D01*
X0093925Y0011914D01*
X0094000Y0011889D01*
X0094074Y0011861D01*
X0094147Y0011829D01*
X0094217Y0011794D01*
X0094286Y0011755D01*
X0094353Y0011712D01*
X0094418Y0011666D01*
X0094480Y0011618D01*
X0094540Y0011566D01*
X0094597Y0011511D01*
X0094651Y0011453D01*
X0094702Y0011393D01*
X0094750Y0011330D01*
X0094795Y0011265D01*
X0094837Y0011197D01*
X0094875Y0011128D01*
X0094909Y0011057D01*
X0094940Y0010984D01*
X0094968Y0010909D01*
X0094991Y0010834D01*
X0095011Y0010757D01*
X0095027Y0010680D01*
X0095039Y0010601D01*
X0095047Y0010523D01*
X0095051Y0010444D01*
X0095051Y0010364D01*
X0095047Y0010285D01*
X0095039Y0010207D01*
X0095027Y0010128D01*
X0095011Y0010051D01*
X0094991Y0009974D01*
X0094968Y0009899D01*
X0094940Y0009824D01*
X0094909Y0009751D01*
X0094875Y0009680D01*
X0094837Y0009611D01*
X0094795Y0009543D01*
X0094750Y0009478D01*
X0094702Y0009415D01*
X0094651Y0009355D01*
X0094597Y0009297D01*
X0094540Y0009242D01*
X0094480Y0009190D01*
X0094418Y0009142D01*
X0094353Y0009096D01*
X0094286Y0009053D01*
X0094217Y0009014D01*
X0094147Y0008979D01*
X0094074Y0008947D01*
X0094000Y0008919D01*
X0093925Y0008894D01*
X0093848Y0008874D01*
X0093771Y0008857D01*
X0093693Y0008844D01*
X0093614Y0008835D01*
X0093535Y0008830D01*
X0093456Y0008829D01*
X0093377Y0008832D01*
X0093298Y0008839D01*
X0093220Y0008850D01*
X0093142Y0008865D01*
X0093065Y0008884D01*
X0092989Y0008906D01*
X0092915Y0008932D01*
X0092841Y0008962D01*
X0092770Y0008996D01*
X0092700Y0009033D01*
X0092632Y0009074D01*
X0092566Y0009118D01*
X0092503Y0009166D01*
X0092442Y0009216D01*
X0092383Y0009270D01*
X0092328Y0009326D01*
X0092275Y0009385D01*
X0092225Y0009447D01*
X0092179Y0009511D01*
X0092136Y0009577D01*
X0092096Y0009645D01*
X0092059Y0009716D01*
X0092027Y0009788D01*
X0091997Y0009861D01*
X0091972Y0009936D01*
X0091950Y0010012D01*
X0091933Y0010089D01*
X0091919Y0010167D01*
X0091909Y0010246D01*
X0091903Y0010325D01*
X0091901Y0010404D01*
X0097271Y0075187D02*
X0097273Y0075305D01*
X0097279Y0075424D01*
X0097289Y0075542D01*
X0097303Y0075659D01*
X0097320Y0075776D01*
X0097342Y0075893D01*
X0097368Y0076008D01*
X0097397Y0076123D01*
X0097430Y0076237D01*
X0097467Y0076349D01*
X0097508Y0076460D01*
X0097552Y0076570D01*
X0097600Y0076678D01*
X0097652Y0076785D01*
X0097707Y0076890D01*
X0097766Y0076993D01*
X0097828Y0077093D01*
X0097893Y0077192D01*
X0097962Y0077289D01*
X0098033Y0077383D01*
X0098108Y0077474D01*
X0098186Y0077564D01*
X0098267Y0077650D01*
X0098351Y0077734D01*
X0098437Y0077815D01*
X0098527Y0077893D01*
X0098618Y0077968D01*
X0098712Y0078039D01*
X0098809Y0078108D01*
X0098908Y0078173D01*
X0099008Y0078235D01*
X0099111Y0078294D01*
X0099216Y0078349D01*
X0099323Y0078401D01*
X0099431Y0078449D01*
X0099541Y0078493D01*
X0099652Y0078534D01*
X0099764Y0078571D01*
X0099878Y0078604D01*
X0099993Y0078633D01*
X0100108Y0078659D01*
X0100225Y0078681D01*
X0100342Y0078698D01*
X0100459Y0078712D01*
X0100577Y0078722D01*
X0100696Y0078728D01*
X0100814Y0078730D01*
X0100932Y0078728D01*
X0101051Y0078722D01*
X0101169Y0078712D01*
X0101286Y0078698D01*
X0101403Y0078681D01*
X0101520Y0078659D01*
X0101635Y0078633D01*
X0101750Y0078604D01*
X0101864Y0078571D01*
X0101976Y0078534D01*
X0102087Y0078493D01*
X0102197Y0078449D01*
X0102305Y0078401D01*
X0102412Y0078349D01*
X0102517Y0078294D01*
X0102620Y0078235D01*
X0102720Y0078173D01*
X0102819Y0078108D01*
X0102916Y0078039D01*
X0103010Y0077968D01*
X0103101Y0077893D01*
X0103191Y0077815D01*
X0103277Y0077734D01*
X0103361Y0077650D01*
X0103442Y0077564D01*
X0103520Y0077474D01*
X0103595Y0077383D01*
X0103666Y0077289D01*
X0103735Y0077192D01*
X0103800Y0077093D01*
X0103862Y0076993D01*
X0103921Y0076890D01*
X0103976Y0076785D01*
X0104028Y0076678D01*
X0104076Y0076570D01*
X0104120Y0076460D01*
X0104161Y0076349D01*
X0104198Y0076237D01*
X0104231Y0076123D01*
X0104260Y0076008D01*
X0104286Y0075893D01*
X0104308Y0075776D01*
X0104325Y0075659D01*
X0104339Y0075542D01*
X0104349Y0075424D01*
X0104355Y0075305D01*
X0104357Y0075187D01*
X0104355Y0075069D01*
X0104349Y0074950D01*
X0104339Y0074832D01*
X0104325Y0074715D01*
X0104308Y0074598D01*
X0104286Y0074481D01*
X0104260Y0074366D01*
X0104231Y0074251D01*
X0104198Y0074137D01*
X0104161Y0074025D01*
X0104120Y0073914D01*
X0104076Y0073804D01*
X0104028Y0073696D01*
X0103976Y0073589D01*
X0103921Y0073484D01*
X0103862Y0073381D01*
X0103800Y0073281D01*
X0103735Y0073182D01*
X0103666Y0073085D01*
X0103595Y0072991D01*
X0103520Y0072900D01*
X0103442Y0072810D01*
X0103361Y0072724D01*
X0103277Y0072640D01*
X0103191Y0072559D01*
X0103101Y0072481D01*
X0103010Y0072406D01*
X0102916Y0072335D01*
X0102819Y0072266D01*
X0102720Y0072201D01*
X0102620Y0072139D01*
X0102517Y0072080D01*
X0102412Y0072025D01*
X0102305Y0071973D01*
X0102197Y0071925D01*
X0102087Y0071881D01*
X0101976Y0071840D01*
X0101864Y0071803D01*
X0101750Y0071770D01*
X0101635Y0071741D01*
X0101520Y0071715D01*
X0101403Y0071693D01*
X0101286Y0071676D01*
X0101169Y0071662D01*
X0101051Y0071652D01*
X0100932Y0071646D01*
X0100814Y0071644D01*
X0100696Y0071646D01*
X0100577Y0071652D01*
X0100459Y0071662D01*
X0100342Y0071676D01*
X0100225Y0071693D01*
X0100108Y0071715D01*
X0099993Y0071741D01*
X0099878Y0071770D01*
X0099764Y0071803D01*
X0099652Y0071840D01*
X0099541Y0071881D01*
X0099431Y0071925D01*
X0099323Y0071973D01*
X0099216Y0072025D01*
X0099111Y0072080D01*
X0099008Y0072139D01*
X0098908Y0072201D01*
X0098809Y0072266D01*
X0098712Y0072335D01*
X0098618Y0072406D01*
X0098527Y0072481D01*
X0098437Y0072559D01*
X0098351Y0072640D01*
X0098267Y0072724D01*
X0098186Y0072810D01*
X0098108Y0072900D01*
X0098033Y0072991D01*
X0097962Y0073085D01*
X0097893Y0073182D01*
X0097828Y0073281D01*
X0097766Y0073381D01*
X0097707Y0073484D01*
X0097652Y0073589D01*
X0097600Y0073696D01*
X0097552Y0073804D01*
X0097508Y0073914D01*
X0097467Y0074025D01*
X0097430Y0074137D01*
X0097397Y0074251D01*
X0097368Y0074366D01*
X0097342Y0074481D01*
X0097320Y0074598D01*
X0097303Y0074715D01*
X0097289Y0074832D01*
X0097279Y0074950D01*
X0097273Y0075069D01*
X0097271Y0075187D01*
X0155735Y0119478D02*
X0155737Y0119596D01*
X0155743Y0119715D01*
X0155753Y0119833D01*
X0155767Y0119950D01*
X0155784Y0120067D01*
X0155806Y0120184D01*
X0155832Y0120299D01*
X0155861Y0120414D01*
X0155894Y0120528D01*
X0155931Y0120640D01*
X0155972Y0120751D01*
X0156016Y0120861D01*
X0156064Y0120969D01*
X0156116Y0121076D01*
X0156171Y0121181D01*
X0156230Y0121284D01*
X0156292Y0121384D01*
X0156357Y0121483D01*
X0156426Y0121580D01*
X0156497Y0121674D01*
X0156572Y0121765D01*
X0156650Y0121855D01*
X0156731Y0121941D01*
X0156815Y0122025D01*
X0156901Y0122106D01*
X0156991Y0122184D01*
X0157082Y0122259D01*
X0157176Y0122330D01*
X0157273Y0122399D01*
X0157372Y0122464D01*
X0157472Y0122526D01*
X0157575Y0122585D01*
X0157680Y0122640D01*
X0157787Y0122692D01*
X0157895Y0122740D01*
X0158005Y0122784D01*
X0158116Y0122825D01*
X0158228Y0122862D01*
X0158342Y0122895D01*
X0158457Y0122924D01*
X0158572Y0122950D01*
X0158689Y0122972D01*
X0158806Y0122989D01*
X0158923Y0123003D01*
X0159041Y0123013D01*
X0159160Y0123019D01*
X0159278Y0123021D01*
X0159396Y0123019D01*
X0159515Y0123013D01*
X0159633Y0123003D01*
X0159750Y0122989D01*
X0159867Y0122972D01*
X0159984Y0122950D01*
X0160099Y0122924D01*
X0160214Y0122895D01*
X0160328Y0122862D01*
X0160440Y0122825D01*
X0160551Y0122784D01*
X0160661Y0122740D01*
X0160769Y0122692D01*
X0160876Y0122640D01*
X0160981Y0122585D01*
X0161084Y0122526D01*
X0161184Y0122464D01*
X0161283Y0122399D01*
X0161380Y0122330D01*
X0161474Y0122259D01*
X0161565Y0122184D01*
X0161655Y0122106D01*
X0161741Y0122025D01*
X0161825Y0121941D01*
X0161906Y0121855D01*
X0161984Y0121765D01*
X0162059Y0121674D01*
X0162130Y0121580D01*
X0162199Y0121483D01*
X0162264Y0121384D01*
X0162326Y0121284D01*
X0162385Y0121181D01*
X0162440Y0121076D01*
X0162492Y0120969D01*
X0162540Y0120861D01*
X0162584Y0120751D01*
X0162625Y0120640D01*
X0162662Y0120528D01*
X0162695Y0120414D01*
X0162724Y0120299D01*
X0162750Y0120184D01*
X0162772Y0120067D01*
X0162789Y0119950D01*
X0162803Y0119833D01*
X0162813Y0119715D01*
X0162819Y0119596D01*
X0162821Y0119478D01*
X0162819Y0119360D01*
X0162813Y0119241D01*
X0162803Y0119123D01*
X0162789Y0119006D01*
X0162772Y0118889D01*
X0162750Y0118772D01*
X0162724Y0118657D01*
X0162695Y0118542D01*
X0162662Y0118428D01*
X0162625Y0118316D01*
X0162584Y0118205D01*
X0162540Y0118095D01*
X0162492Y0117987D01*
X0162440Y0117880D01*
X0162385Y0117775D01*
X0162326Y0117672D01*
X0162264Y0117572D01*
X0162199Y0117473D01*
X0162130Y0117376D01*
X0162059Y0117282D01*
X0161984Y0117191D01*
X0161906Y0117101D01*
X0161825Y0117015D01*
X0161741Y0116931D01*
X0161655Y0116850D01*
X0161565Y0116772D01*
X0161474Y0116697D01*
X0161380Y0116626D01*
X0161283Y0116557D01*
X0161184Y0116492D01*
X0161084Y0116430D01*
X0160981Y0116371D01*
X0160876Y0116316D01*
X0160769Y0116264D01*
X0160661Y0116216D01*
X0160551Y0116172D01*
X0160440Y0116131D01*
X0160328Y0116094D01*
X0160214Y0116061D01*
X0160099Y0116032D01*
X0159984Y0116006D01*
X0159867Y0115984D01*
X0159750Y0115967D01*
X0159633Y0115953D01*
X0159515Y0115943D01*
X0159396Y0115937D01*
X0159278Y0115935D01*
X0159160Y0115937D01*
X0159041Y0115943D01*
X0158923Y0115953D01*
X0158806Y0115967D01*
X0158689Y0115984D01*
X0158572Y0116006D01*
X0158457Y0116032D01*
X0158342Y0116061D01*
X0158228Y0116094D01*
X0158116Y0116131D01*
X0158005Y0116172D01*
X0157895Y0116216D01*
X0157787Y0116264D01*
X0157680Y0116316D01*
X0157575Y0116371D01*
X0157472Y0116430D01*
X0157372Y0116492D01*
X0157273Y0116557D01*
X0157176Y0116626D01*
X0157082Y0116697D01*
X0156991Y0116772D01*
X0156901Y0116850D01*
X0156815Y0116931D01*
X0156731Y0117015D01*
X0156650Y0117101D01*
X0156572Y0117191D01*
X0156497Y0117282D01*
X0156426Y0117376D01*
X0156357Y0117473D01*
X0156292Y0117572D01*
X0156230Y0117672D01*
X0156171Y0117775D01*
X0156116Y0117880D01*
X0156064Y0117987D01*
X0156016Y0118095D01*
X0155972Y0118205D01*
X0155931Y0118316D01*
X0155894Y0118428D01*
X0155861Y0118542D01*
X0155832Y0118657D01*
X0155806Y0118772D01*
X0155784Y0118889D01*
X0155767Y0119006D01*
X0155753Y0119123D01*
X0155743Y0119241D01*
X0155737Y0119360D01*
X0155735Y0119478D01*
X0207091Y0101027D02*
X0207093Y0101089D01*
X0207099Y0101152D01*
X0207109Y0101213D01*
X0207123Y0101274D01*
X0207140Y0101334D01*
X0207161Y0101393D01*
X0207187Y0101450D01*
X0207215Y0101505D01*
X0207247Y0101559D01*
X0207283Y0101610D01*
X0207321Y0101660D01*
X0207363Y0101706D01*
X0207407Y0101750D01*
X0207455Y0101791D01*
X0207504Y0101829D01*
X0207556Y0101863D01*
X0207610Y0101894D01*
X0207666Y0101922D01*
X0207724Y0101946D01*
X0207783Y0101967D01*
X0207843Y0101983D01*
X0207904Y0101996D01*
X0207966Y0102005D01*
X0208028Y0102010D01*
X0208091Y0102011D01*
X0208153Y0102008D01*
X0208215Y0102001D01*
X0208277Y0101990D01*
X0208337Y0101975D01*
X0208397Y0101957D01*
X0208455Y0101935D01*
X0208512Y0101909D01*
X0208567Y0101879D01*
X0208620Y0101846D01*
X0208671Y0101810D01*
X0208719Y0101771D01*
X0208765Y0101728D01*
X0208808Y0101683D01*
X0208848Y0101635D01*
X0208885Y0101585D01*
X0208919Y0101532D01*
X0208950Y0101478D01*
X0208976Y0101422D01*
X0209000Y0101364D01*
X0209019Y0101304D01*
X0209035Y0101244D01*
X0209047Y0101182D01*
X0209055Y0101121D01*
X0209059Y0101058D01*
X0209059Y0100996D01*
X0209055Y0100933D01*
X0209047Y0100872D01*
X0209035Y0100810D01*
X0209019Y0100750D01*
X0209000Y0100690D01*
X0208976Y0100632D01*
X0208950Y0100576D01*
X0208919Y0100522D01*
X0208885Y0100469D01*
X0208848Y0100419D01*
X0208808Y0100371D01*
X0208765Y0100326D01*
X0208719Y0100283D01*
X0208671Y0100244D01*
X0208620Y0100208D01*
X0208567Y0100175D01*
X0208512Y0100145D01*
X0208455Y0100119D01*
X0208397Y0100097D01*
X0208337Y0100079D01*
X0208277Y0100064D01*
X0208215Y0100053D01*
X0208153Y0100046D01*
X0208091Y0100043D01*
X0208028Y0100044D01*
X0207966Y0100049D01*
X0207904Y0100058D01*
X0207843Y0100071D01*
X0207783Y0100087D01*
X0207724Y0100108D01*
X0207666Y0100132D01*
X0207610Y0100160D01*
X0207556Y0100191D01*
X0207504Y0100225D01*
X0207455Y0100263D01*
X0207407Y0100304D01*
X0207363Y0100348D01*
X0207321Y0100394D01*
X0207283Y0100444D01*
X0207247Y0100495D01*
X0207215Y0100549D01*
X0207187Y0100604D01*
X0207161Y0100661D01*
X0207140Y0100720D01*
X0207123Y0100780D01*
X0207109Y0100841D01*
X0207099Y0100902D01*
X0207093Y0100965D01*
X0207091Y0101027D01*
X0209342Y0101027D02*
X0209344Y0101089D01*
X0209350Y0101152D01*
X0209360Y0101213D01*
X0209374Y0101274D01*
X0209391Y0101334D01*
X0209412Y0101393D01*
X0209438Y0101450D01*
X0209466Y0101505D01*
X0209498Y0101559D01*
X0209534Y0101610D01*
X0209572Y0101660D01*
X0209614Y0101706D01*
X0209658Y0101750D01*
X0209706Y0101791D01*
X0209755Y0101829D01*
X0209807Y0101863D01*
X0209861Y0101894D01*
X0209917Y0101922D01*
X0209975Y0101946D01*
X0210034Y0101967D01*
X0210094Y0101983D01*
X0210155Y0101996D01*
X0210217Y0102005D01*
X0210279Y0102010D01*
X0210342Y0102011D01*
X0210404Y0102008D01*
X0210466Y0102001D01*
X0210528Y0101990D01*
X0210588Y0101975D01*
X0210648Y0101957D01*
X0210706Y0101935D01*
X0210763Y0101909D01*
X0210818Y0101879D01*
X0210871Y0101846D01*
X0210922Y0101810D01*
X0210970Y0101771D01*
X0211016Y0101728D01*
X0211059Y0101683D01*
X0211099Y0101635D01*
X0211136Y0101585D01*
X0211170Y0101532D01*
X0211201Y0101478D01*
X0211227Y0101422D01*
X0211251Y0101364D01*
X0211270Y0101304D01*
X0211286Y0101244D01*
X0211298Y0101182D01*
X0211306Y0101121D01*
X0211310Y0101058D01*
X0211310Y0100996D01*
X0211306Y0100933D01*
X0211298Y0100872D01*
X0211286Y0100810D01*
X0211270Y0100750D01*
X0211251Y0100690D01*
X0211227Y0100632D01*
X0211201Y0100576D01*
X0211170Y0100522D01*
X0211136Y0100469D01*
X0211099Y0100419D01*
X0211059Y0100371D01*
X0211016Y0100326D01*
X0210970Y0100283D01*
X0210922Y0100244D01*
X0210871Y0100208D01*
X0210818Y0100175D01*
X0210763Y0100145D01*
X0210706Y0100119D01*
X0210648Y0100097D01*
X0210588Y0100079D01*
X0210528Y0100064D01*
X0210466Y0100053D01*
X0210404Y0100046D01*
X0210342Y0100043D01*
X0210279Y0100044D01*
X0210217Y0100049D01*
X0210155Y0100058D01*
X0210094Y0100071D01*
X0210034Y0100087D01*
X0209975Y0100108D01*
X0209917Y0100132D01*
X0209861Y0100160D01*
X0209807Y0100191D01*
X0209755Y0100225D01*
X0209706Y0100263D01*
X0209658Y0100304D01*
X0209614Y0100348D01*
X0209572Y0100394D01*
X0209534Y0100444D01*
X0209498Y0100495D01*
X0209466Y0100549D01*
X0209438Y0100604D01*
X0209412Y0100661D01*
X0209391Y0100720D01*
X0209374Y0100780D01*
X0209360Y0100841D01*
X0209350Y0100902D01*
X0209344Y0100965D01*
X0209342Y0101027D01*
X0211659Y0101027D02*
X0211661Y0101089D01*
X0211667Y0101152D01*
X0211677Y0101213D01*
X0211691Y0101274D01*
X0211708Y0101334D01*
X0211729Y0101393D01*
X0211755Y0101450D01*
X0211783Y0101505D01*
X0211815Y0101559D01*
X0211851Y0101610D01*
X0211889Y0101660D01*
X0211931Y0101706D01*
X0211975Y0101750D01*
X0212023Y0101791D01*
X0212072Y0101829D01*
X0212124Y0101863D01*
X0212178Y0101894D01*
X0212234Y0101922D01*
X0212292Y0101946D01*
X0212351Y0101967D01*
X0212411Y0101983D01*
X0212472Y0101996D01*
X0212534Y0102005D01*
X0212596Y0102010D01*
X0212659Y0102011D01*
X0212721Y0102008D01*
X0212783Y0102001D01*
X0212845Y0101990D01*
X0212905Y0101975D01*
X0212965Y0101957D01*
X0213023Y0101935D01*
X0213080Y0101909D01*
X0213135Y0101879D01*
X0213188Y0101846D01*
X0213239Y0101810D01*
X0213287Y0101771D01*
X0213333Y0101728D01*
X0213376Y0101683D01*
X0213416Y0101635D01*
X0213453Y0101585D01*
X0213487Y0101532D01*
X0213518Y0101478D01*
X0213544Y0101422D01*
X0213568Y0101364D01*
X0213587Y0101304D01*
X0213603Y0101244D01*
X0213615Y0101182D01*
X0213623Y0101121D01*
X0213627Y0101058D01*
X0213627Y0100996D01*
X0213623Y0100933D01*
X0213615Y0100872D01*
X0213603Y0100810D01*
X0213587Y0100750D01*
X0213568Y0100690D01*
X0213544Y0100632D01*
X0213518Y0100576D01*
X0213487Y0100522D01*
X0213453Y0100469D01*
X0213416Y0100419D01*
X0213376Y0100371D01*
X0213333Y0100326D01*
X0213287Y0100283D01*
X0213239Y0100244D01*
X0213188Y0100208D01*
X0213135Y0100175D01*
X0213080Y0100145D01*
X0213023Y0100119D01*
X0212965Y0100097D01*
X0212905Y0100079D01*
X0212845Y0100064D01*
X0212783Y0100053D01*
X0212721Y0100046D01*
X0212659Y0100043D01*
X0212596Y0100044D01*
X0212534Y0100049D01*
X0212472Y0100058D01*
X0212411Y0100071D01*
X0212351Y0100087D01*
X0212292Y0100108D01*
X0212234Y0100132D01*
X0212178Y0100160D01*
X0212124Y0100191D01*
X0212072Y0100225D01*
X0212023Y0100263D01*
X0211975Y0100304D01*
X0211931Y0100348D01*
X0211889Y0100394D01*
X0211851Y0100444D01*
X0211815Y0100495D01*
X0211783Y0100549D01*
X0211755Y0100604D01*
X0211729Y0100661D01*
X0211708Y0100720D01*
X0211691Y0100780D01*
X0211677Y0100841D01*
X0211667Y0100902D01*
X0211661Y0100965D01*
X0211659Y0101027D01*
X0213936Y0101027D02*
X0213938Y0101089D01*
X0213944Y0101152D01*
X0213954Y0101213D01*
X0213968Y0101274D01*
X0213985Y0101334D01*
X0214006Y0101393D01*
X0214032Y0101450D01*
X0214060Y0101505D01*
X0214092Y0101559D01*
X0214128Y0101610D01*
X0214166Y0101660D01*
X0214208Y0101706D01*
X0214252Y0101750D01*
X0214300Y0101791D01*
X0214349Y0101829D01*
X0214401Y0101863D01*
X0214455Y0101894D01*
X0214511Y0101922D01*
X0214569Y0101946D01*
X0214628Y0101967D01*
X0214688Y0101983D01*
X0214749Y0101996D01*
X0214811Y0102005D01*
X0214873Y0102010D01*
X0214936Y0102011D01*
X0214998Y0102008D01*
X0215060Y0102001D01*
X0215122Y0101990D01*
X0215182Y0101975D01*
X0215242Y0101957D01*
X0215300Y0101935D01*
X0215357Y0101909D01*
X0215412Y0101879D01*
X0215465Y0101846D01*
X0215516Y0101810D01*
X0215564Y0101771D01*
X0215610Y0101728D01*
X0215653Y0101683D01*
X0215693Y0101635D01*
X0215730Y0101585D01*
X0215764Y0101532D01*
X0215795Y0101478D01*
X0215821Y0101422D01*
X0215845Y0101364D01*
X0215864Y0101304D01*
X0215880Y0101244D01*
X0215892Y0101182D01*
X0215900Y0101121D01*
X0215904Y0101058D01*
X0215904Y0100996D01*
X0215900Y0100933D01*
X0215892Y0100872D01*
X0215880Y0100810D01*
X0215864Y0100750D01*
X0215845Y0100690D01*
X0215821Y0100632D01*
X0215795Y0100576D01*
X0215764Y0100522D01*
X0215730Y0100469D01*
X0215693Y0100419D01*
X0215653Y0100371D01*
X0215610Y0100326D01*
X0215564Y0100283D01*
X0215516Y0100244D01*
X0215465Y0100208D01*
X0215412Y0100175D01*
X0215357Y0100145D01*
X0215300Y0100119D01*
X0215242Y0100097D01*
X0215182Y0100079D01*
X0215122Y0100064D01*
X0215060Y0100053D01*
X0214998Y0100046D01*
X0214936Y0100043D01*
X0214873Y0100044D01*
X0214811Y0100049D01*
X0214749Y0100058D01*
X0214688Y0100071D01*
X0214628Y0100087D01*
X0214569Y0100108D01*
X0214511Y0100132D01*
X0214455Y0100160D01*
X0214401Y0100191D01*
X0214349Y0100225D01*
X0214300Y0100263D01*
X0214252Y0100304D01*
X0214208Y0100348D01*
X0214166Y0100394D01*
X0214128Y0100444D01*
X0214092Y0100495D01*
X0214060Y0100549D01*
X0214032Y0100604D01*
X0214006Y0100661D01*
X0213985Y0100720D01*
X0213968Y0100780D01*
X0213954Y0100841D01*
X0213944Y0100902D01*
X0213938Y0100965D01*
X0213936Y0101027D01*
X0216253Y0101027D02*
X0216255Y0101089D01*
X0216261Y0101152D01*
X0216271Y0101213D01*
X0216285Y0101274D01*
X0216302Y0101334D01*
X0216323Y0101393D01*
X0216349Y0101450D01*
X0216377Y0101505D01*
X0216409Y0101559D01*
X0216445Y0101610D01*
X0216483Y0101660D01*
X0216525Y0101706D01*
X0216569Y0101750D01*
X0216617Y0101791D01*
X0216666Y0101829D01*
X0216718Y0101863D01*
X0216772Y0101894D01*
X0216828Y0101922D01*
X0216886Y0101946D01*
X0216945Y0101967D01*
X0217005Y0101983D01*
X0217066Y0101996D01*
X0217128Y0102005D01*
X0217190Y0102010D01*
X0217253Y0102011D01*
X0217315Y0102008D01*
X0217377Y0102001D01*
X0217439Y0101990D01*
X0217499Y0101975D01*
X0217559Y0101957D01*
X0217617Y0101935D01*
X0217674Y0101909D01*
X0217729Y0101879D01*
X0217782Y0101846D01*
X0217833Y0101810D01*
X0217881Y0101771D01*
X0217927Y0101728D01*
X0217970Y0101683D01*
X0218010Y0101635D01*
X0218047Y0101585D01*
X0218081Y0101532D01*
X0218112Y0101478D01*
X0218138Y0101422D01*
X0218162Y0101364D01*
X0218181Y0101304D01*
X0218197Y0101244D01*
X0218209Y0101182D01*
X0218217Y0101121D01*
X0218221Y0101058D01*
X0218221Y0100996D01*
X0218217Y0100933D01*
X0218209Y0100872D01*
X0218197Y0100810D01*
X0218181Y0100750D01*
X0218162Y0100690D01*
X0218138Y0100632D01*
X0218112Y0100576D01*
X0218081Y0100522D01*
X0218047Y0100469D01*
X0218010Y0100419D01*
X0217970Y0100371D01*
X0217927Y0100326D01*
X0217881Y0100283D01*
X0217833Y0100244D01*
X0217782Y0100208D01*
X0217729Y0100175D01*
X0217674Y0100145D01*
X0217617Y0100119D01*
X0217559Y0100097D01*
X0217499Y0100079D01*
X0217439Y0100064D01*
X0217377Y0100053D01*
X0217315Y0100046D01*
X0217253Y0100043D01*
X0217190Y0100044D01*
X0217128Y0100049D01*
X0217066Y0100058D01*
X0217005Y0100071D01*
X0216945Y0100087D01*
X0216886Y0100108D01*
X0216828Y0100132D01*
X0216772Y0100160D01*
X0216718Y0100191D01*
X0216666Y0100225D01*
X0216617Y0100263D01*
X0216569Y0100304D01*
X0216525Y0100348D01*
X0216483Y0100394D01*
X0216445Y0100444D01*
X0216409Y0100495D01*
X0216377Y0100549D01*
X0216349Y0100604D01*
X0216323Y0100661D01*
X0216302Y0100720D01*
X0216285Y0100780D01*
X0216271Y0100841D01*
X0216261Y0100902D01*
X0216255Y0100965D01*
X0216253Y0101027D01*
X0218504Y0101027D02*
X0218506Y0101089D01*
X0218512Y0101152D01*
X0218522Y0101213D01*
X0218536Y0101274D01*
X0218553Y0101334D01*
X0218574Y0101393D01*
X0218600Y0101450D01*
X0218628Y0101505D01*
X0218660Y0101559D01*
X0218696Y0101610D01*
X0218734Y0101660D01*
X0218776Y0101706D01*
X0218820Y0101750D01*
X0218868Y0101791D01*
X0218917Y0101829D01*
X0218969Y0101863D01*
X0219023Y0101894D01*
X0219079Y0101922D01*
X0219137Y0101946D01*
X0219196Y0101967D01*
X0219256Y0101983D01*
X0219317Y0101996D01*
X0219379Y0102005D01*
X0219441Y0102010D01*
X0219504Y0102011D01*
X0219566Y0102008D01*
X0219628Y0102001D01*
X0219690Y0101990D01*
X0219750Y0101975D01*
X0219810Y0101957D01*
X0219868Y0101935D01*
X0219925Y0101909D01*
X0219980Y0101879D01*
X0220033Y0101846D01*
X0220084Y0101810D01*
X0220132Y0101771D01*
X0220178Y0101728D01*
X0220221Y0101683D01*
X0220261Y0101635D01*
X0220298Y0101585D01*
X0220332Y0101532D01*
X0220363Y0101478D01*
X0220389Y0101422D01*
X0220413Y0101364D01*
X0220432Y0101304D01*
X0220448Y0101244D01*
X0220460Y0101182D01*
X0220468Y0101121D01*
X0220472Y0101058D01*
X0220472Y0100996D01*
X0220468Y0100933D01*
X0220460Y0100872D01*
X0220448Y0100810D01*
X0220432Y0100750D01*
X0220413Y0100690D01*
X0220389Y0100632D01*
X0220363Y0100576D01*
X0220332Y0100522D01*
X0220298Y0100469D01*
X0220261Y0100419D01*
X0220221Y0100371D01*
X0220178Y0100326D01*
X0220132Y0100283D01*
X0220084Y0100244D01*
X0220033Y0100208D01*
X0219980Y0100175D01*
X0219925Y0100145D01*
X0219868Y0100119D01*
X0219810Y0100097D01*
X0219750Y0100079D01*
X0219690Y0100064D01*
X0219628Y0100053D01*
X0219566Y0100046D01*
X0219504Y0100043D01*
X0219441Y0100044D01*
X0219379Y0100049D01*
X0219317Y0100058D01*
X0219256Y0100071D01*
X0219196Y0100087D01*
X0219137Y0100108D01*
X0219079Y0100132D01*
X0219023Y0100160D01*
X0218969Y0100191D01*
X0218917Y0100225D01*
X0218868Y0100263D01*
X0218820Y0100304D01*
X0218776Y0100348D01*
X0218734Y0100394D01*
X0218696Y0100444D01*
X0218660Y0100495D01*
X0218628Y0100549D01*
X0218600Y0100604D01*
X0218574Y0100661D01*
X0218553Y0100720D01*
X0218536Y0100780D01*
X0218522Y0100841D01*
X0218512Y0100902D01*
X0218506Y0100965D01*
X0218504Y0101027D01*
X0220820Y0101027D02*
X0220822Y0101089D01*
X0220828Y0101152D01*
X0220838Y0101213D01*
X0220852Y0101274D01*
X0220869Y0101334D01*
X0220890Y0101393D01*
X0220916Y0101450D01*
X0220944Y0101505D01*
X0220976Y0101559D01*
X0221012Y0101610D01*
X0221050Y0101660D01*
X0221092Y0101706D01*
X0221136Y0101750D01*
X0221184Y0101791D01*
X0221233Y0101829D01*
X0221285Y0101863D01*
X0221339Y0101894D01*
X0221395Y0101922D01*
X0221453Y0101946D01*
X0221512Y0101967D01*
X0221572Y0101983D01*
X0221633Y0101996D01*
X0221695Y0102005D01*
X0221757Y0102010D01*
X0221820Y0102011D01*
X0221882Y0102008D01*
X0221944Y0102001D01*
X0222006Y0101990D01*
X0222066Y0101975D01*
X0222126Y0101957D01*
X0222184Y0101935D01*
X0222241Y0101909D01*
X0222296Y0101879D01*
X0222349Y0101846D01*
X0222400Y0101810D01*
X0222448Y0101771D01*
X0222494Y0101728D01*
X0222537Y0101683D01*
X0222577Y0101635D01*
X0222614Y0101585D01*
X0222648Y0101532D01*
X0222679Y0101478D01*
X0222705Y0101422D01*
X0222729Y0101364D01*
X0222748Y0101304D01*
X0222764Y0101244D01*
X0222776Y0101182D01*
X0222784Y0101121D01*
X0222788Y0101058D01*
X0222788Y0100996D01*
X0222784Y0100933D01*
X0222776Y0100872D01*
X0222764Y0100810D01*
X0222748Y0100750D01*
X0222729Y0100690D01*
X0222705Y0100632D01*
X0222679Y0100576D01*
X0222648Y0100522D01*
X0222614Y0100469D01*
X0222577Y0100419D01*
X0222537Y0100371D01*
X0222494Y0100326D01*
X0222448Y0100283D01*
X0222400Y0100244D01*
X0222349Y0100208D01*
X0222296Y0100175D01*
X0222241Y0100145D01*
X0222184Y0100119D01*
X0222126Y0100097D01*
X0222066Y0100079D01*
X0222006Y0100064D01*
X0221944Y0100053D01*
X0221882Y0100046D01*
X0221820Y0100043D01*
X0221757Y0100044D01*
X0221695Y0100049D01*
X0221633Y0100058D01*
X0221572Y0100071D01*
X0221512Y0100087D01*
X0221453Y0100108D01*
X0221395Y0100132D01*
X0221339Y0100160D01*
X0221285Y0100191D01*
X0221233Y0100225D01*
X0221184Y0100263D01*
X0221136Y0100304D01*
X0221092Y0100348D01*
X0221050Y0100394D01*
X0221012Y0100444D01*
X0220976Y0100495D01*
X0220944Y0100549D01*
X0220916Y0100604D01*
X0220890Y0100661D01*
X0220869Y0100720D01*
X0220852Y0100780D01*
X0220838Y0100841D01*
X0220828Y0100902D01*
X0220822Y0100965D01*
X0220820Y0101027D01*
X0223046Y0101023D02*
X0223048Y0101085D01*
X0223054Y0101148D01*
X0223064Y0101209D01*
X0223078Y0101270D01*
X0223095Y0101330D01*
X0223116Y0101389D01*
X0223142Y0101446D01*
X0223170Y0101501D01*
X0223202Y0101555D01*
X0223238Y0101606D01*
X0223276Y0101656D01*
X0223318Y0101702D01*
X0223362Y0101746D01*
X0223410Y0101787D01*
X0223459Y0101825D01*
X0223511Y0101859D01*
X0223565Y0101890D01*
X0223621Y0101918D01*
X0223679Y0101942D01*
X0223738Y0101963D01*
X0223798Y0101979D01*
X0223859Y0101992D01*
X0223921Y0102001D01*
X0223983Y0102006D01*
X0224046Y0102007D01*
X0224108Y0102004D01*
X0224170Y0101997D01*
X0224232Y0101986D01*
X0224292Y0101971D01*
X0224352Y0101953D01*
X0224410Y0101931D01*
X0224467Y0101905D01*
X0224522Y0101875D01*
X0224575Y0101842D01*
X0224626Y0101806D01*
X0224674Y0101767D01*
X0224720Y0101724D01*
X0224763Y0101679D01*
X0224803Y0101631D01*
X0224840Y0101581D01*
X0224874Y0101528D01*
X0224905Y0101474D01*
X0224931Y0101418D01*
X0224955Y0101360D01*
X0224974Y0101300D01*
X0224990Y0101240D01*
X0225002Y0101178D01*
X0225010Y0101117D01*
X0225014Y0101054D01*
X0225014Y0100992D01*
X0225010Y0100929D01*
X0225002Y0100868D01*
X0224990Y0100806D01*
X0224974Y0100746D01*
X0224955Y0100686D01*
X0224931Y0100628D01*
X0224905Y0100572D01*
X0224874Y0100518D01*
X0224840Y0100465D01*
X0224803Y0100415D01*
X0224763Y0100367D01*
X0224720Y0100322D01*
X0224674Y0100279D01*
X0224626Y0100240D01*
X0224575Y0100204D01*
X0224522Y0100171D01*
X0224467Y0100141D01*
X0224410Y0100115D01*
X0224352Y0100093D01*
X0224292Y0100075D01*
X0224232Y0100060D01*
X0224170Y0100049D01*
X0224108Y0100042D01*
X0224046Y0100039D01*
X0223983Y0100040D01*
X0223921Y0100045D01*
X0223859Y0100054D01*
X0223798Y0100067D01*
X0223738Y0100083D01*
X0223679Y0100104D01*
X0223621Y0100128D01*
X0223565Y0100156D01*
X0223511Y0100187D01*
X0223459Y0100221D01*
X0223410Y0100259D01*
X0223362Y0100300D01*
X0223318Y0100344D01*
X0223276Y0100390D01*
X0223238Y0100440D01*
X0223202Y0100491D01*
X0223170Y0100545D01*
X0223142Y0100600D01*
X0223116Y0100657D01*
X0223095Y0100716D01*
X0223078Y0100776D01*
X0223064Y0100837D01*
X0223054Y0100898D01*
X0223048Y0100961D01*
X0223046Y0101023D01*
X0225363Y0101023D02*
X0225365Y0101085D01*
X0225371Y0101148D01*
X0225381Y0101209D01*
X0225395Y0101270D01*
X0225412Y0101330D01*
X0225433Y0101389D01*
X0225459Y0101446D01*
X0225487Y0101501D01*
X0225519Y0101555D01*
X0225555Y0101606D01*
X0225593Y0101656D01*
X0225635Y0101702D01*
X0225679Y0101746D01*
X0225727Y0101787D01*
X0225776Y0101825D01*
X0225828Y0101859D01*
X0225882Y0101890D01*
X0225938Y0101918D01*
X0225996Y0101942D01*
X0226055Y0101963D01*
X0226115Y0101979D01*
X0226176Y0101992D01*
X0226238Y0102001D01*
X0226300Y0102006D01*
X0226363Y0102007D01*
X0226425Y0102004D01*
X0226487Y0101997D01*
X0226549Y0101986D01*
X0226609Y0101971D01*
X0226669Y0101953D01*
X0226727Y0101931D01*
X0226784Y0101905D01*
X0226839Y0101875D01*
X0226892Y0101842D01*
X0226943Y0101806D01*
X0226991Y0101767D01*
X0227037Y0101724D01*
X0227080Y0101679D01*
X0227120Y0101631D01*
X0227157Y0101581D01*
X0227191Y0101528D01*
X0227222Y0101474D01*
X0227248Y0101418D01*
X0227272Y0101360D01*
X0227291Y0101300D01*
X0227307Y0101240D01*
X0227319Y0101178D01*
X0227327Y0101117D01*
X0227331Y0101054D01*
X0227331Y0100992D01*
X0227327Y0100929D01*
X0227319Y0100868D01*
X0227307Y0100806D01*
X0227291Y0100746D01*
X0227272Y0100686D01*
X0227248Y0100628D01*
X0227222Y0100572D01*
X0227191Y0100518D01*
X0227157Y0100465D01*
X0227120Y0100415D01*
X0227080Y0100367D01*
X0227037Y0100322D01*
X0226991Y0100279D01*
X0226943Y0100240D01*
X0226892Y0100204D01*
X0226839Y0100171D01*
X0226784Y0100141D01*
X0226727Y0100115D01*
X0226669Y0100093D01*
X0226609Y0100075D01*
X0226549Y0100060D01*
X0226487Y0100049D01*
X0226425Y0100042D01*
X0226363Y0100039D01*
X0226300Y0100040D01*
X0226238Y0100045D01*
X0226176Y0100054D01*
X0226115Y0100067D01*
X0226055Y0100083D01*
X0225996Y0100104D01*
X0225938Y0100128D01*
X0225882Y0100156D01*
X0225828Y0100187D01*
X0225776Y0100221D01*
X0225727Y0100259D01*
X0225679Y0100300D01*
X0225635Y0100344D01*
X0225593Y0100390D01*
X0225555Y0100440D01*
X0225519Y0100491D01*
X0225487Y0100545D01*
X0225459Y0100600D01*
X0225433Y0100657D01*
X0225412Y0100716D01*
X0225395Y0100776D01*
X0225381Y0100837D01*
X0225371Y0100898D01*
X0225365Y0100961D01*
X0225363Y0101023D01*
X0227614Y0101023D02*
X0227616Y0101085D01*
X0227622Y0101148D01*
X0227632Y0101209D01*
X0227646Y0101270D01*
X0227663Y0101330D01*
X0227684Y0101389D01*
X0227710Y0101446D01*
X0227738Y0101501D01*
X0227770Y0101555D01*
X0227806Y0101606D01*
X0227844Y0101656D01*
X0227886Y0101702D01*
X0227930Y0101746D01*
X0227978Y0101787D01*
X0228027Y0101825D01*
X0228079Y0101859D01*
X0228133Y0101890D01*
X0228189Y0101918D01*
X0228247Y0101942D01*
X0228306Y0101963D01*
X0228366Y0101979D01*
X0228427Y0101992D01*
X0228489Y0102001D01*
X0228551Y0102006D01*
X0228614Y0102007D01*
X0228676Y0102004D01*
X0228738Y0101997D01*
X0228800Y0101986D01*
X0228860Y0101971D01*
X0228920Y0101953D01*
X0228978Y0101931D01*
X0229035Y0101905D01*
X0229090Y0101875D01*
X0229143Y0101842D01*
X0229194Y0101806D01*
X0229242Y0101767D01*
X0229288Y0101724D01*
X0229331Y0101679D01*
X0229371Y0101631D01*
X0229408Y0101581D01*
X0229442Y0101528D01*
X0229473Y0101474D01*
X0229499Y0101418D01*
X0229523Y0101360D01*
X0229542Y0101300D01*
X0229558Y0101240D01*
X0229570Y0101178D01*
X0229578Y0101117D01*
X0229582Y0101054D01*
X0229582Y0100992D01*
X0229578Y0100929D01*
X0229570Y0100868D01*
X0229558Y0100806D01*
X0229542Y0100746D01*
X0229523Y0100686D01*
X0229499Y0100628D01*
X0229473Y0100572D01*
X0229442Y0100518D01*
X0229408Y0100465D01*
X0229371Y0100415D01*
X0229331Y0100367D01*
X0229288Y0100322D01*
X0229242Y0100279D01*
X0229194Y0100240D01*
X0229143Y0100204D01*
X0229090Y0100171D01*
X0229035Y0100141D01*
X0228978Y0100115D01*
X0228920Y0100093D01*
X0228860Y0100075D01*
X0228800Y0100060D01*
X0228738Y0100049D01*
X0228676Y0100042D01*
X0228614Y0100039D01*
X0228551Y0100040D01*
X0228489Y0100045D01*
X0228427Y0100054D01*
X0228366Y0100067D01*
X0228306Y0100083D01*
X0228247Y0100104D01*
X0228189Y0100128D01*
X0228133Y0100156D01*
X0228079Y0100187D01*
X0228027Y0100221D01*
X0227978Y0100259D01*
X0227930Y0100300D01*
X0227886Y0100344D01*
X0227844Y0100390D01*
X0227806Y0100440D01*
X0227770Y0100491D01*
X0227738Y0100545D01*
X0227710Y0100600D01*
X0227684Y0100657D01*
X0227663Y0100716D01*
X0227646Y0100776D01*
X0227632Y0100837D01*
X0227622Y0100898D01*
X0227616Y0100961D01*
X0227614Y0101023D01*
X0229931Y0101023D02*
X0229933Y0101085D01*
X0229939Y0101148D01*
X0229949Y0101209D01*
X0229963Y0101270D01*
X0229980Y0101330D01*
X0230001Y0101389D01*
X0230027Y0101446D01*
X0230055Y0101501D01*
X0230087Y0101555D01*
X0230123Y0101606D01*
X0230161Y0101656D01*
X0230203Y0101702D01*
X0230247Y0101746D01*
X0230295Y0101787D01*
X0230344Y0101825D01*
X0230396Y0101859D01*
X0230450Y0101890D01*
X0230506Y0101918D01*
X0230564Y0101942D01*
X0230623Y0101963D01*
X0230683Y0101979D01*
X0230744Y0101992D01*
X0230806Y0102001D01*
X0230868Y0102006D01*
X0230931Y0102007D01*
X0230993Y0102004D01*
X0231055Y0101997D01*
X0231117Y0101986D01*
X0231177Y0101971D01*
X0231237Y0101953D01*
X0231295Y0101931D01*
X0231352Y0101905D01*
X0231407Y0101875D01*
X0231460Y0101842D01*
X0231511Y0101806D01*
X0231559Y0101767D01*
X0231605Y0101724D01*
X0231648Y0101679D01*
X0231688Y0101631D01*
X0231725Y0101581D01*
X0231759Y0101528D01*
X0231790Y0101474D01*
X0231816Y0101418D01*
X0231840Y0101360D01*
X0231859Y0101300D01*
X0231875Y0101240D01*
X0231887Y0101178D01*
X0231895Y0101117D01*
X0231899Y0101054D01*
X0231899Y0100992D01*
X0231895Y0100929D01*
X0231887Y0100868D01*
X0231875Y0100806D01*
X0231859Y0100746D01*
X0231840Y0100686D01*
X0231816Y0100628D01*
X0231790Y0100572D01*
X0231759Y0100518D01*
X0231725Y0100465D01*
X0231688Y0100415D01*
X0231648Y0100367D01*
X0231605Y0100322D01*
X0231559Y0100279D01*
X0231511Y0100240D01*
X0231460Y0100204D01*
X0231407Y0100171D01*
X0231352Y0100141D01*
X0231295Y0100115D01*
X0231237Y0100093D01*
X0231177Y0100075D01*
X0231117Y0100060D01*
X0231055Y0100049D01*
X0230993Y0100042D01*
X0230931Y0100039D01*
X0230868Y0100040D01*
X0230806Y0100045D01*
X0230744Y0100054D01*
X0230683Y0100067D01*
X0230623Y0100083D01*
X0230564Y0100104D01*
X0230506Y0100128D01*
X0230450Y0100156D01*
X0230396Y0100187D01*
X0230344Y0100221D01*
X0230295Y0100259D01*
X0230247Y0100300D01*
X0230203Y0100344D01*
X0230161Y0100390D01*
X0230123Y0100440D01*
X0230087Y0100491D01*
X0230055Y0100545D01*
X0230027Y0100600D01*
X0230001Y0100657D01*
X0229980Y0100716D01*
X0229963Y0100776D01*
X0229949Y0100837D01*
X0229939Y0100898D01*
X0229933Y0100961D01*
X0229931Y0101023D01*
X0232207Y0101023D02*
X0232209Y0101085D01*
X0232215Y0101148D01*
X0232225Y0101209D01*
X0232239Y0101270D01*
X0232256Y0101330D01*
X0232277Y0101389D01*
X0232303Y0101446D01*
X0232331Y0101501D01*
X0232363Y0101555D01*
X0232399Y0101606D01*
X0232437Y0101656D01*
X0232479Y0101702D01*
X0232523Y0101746D01*
X0232571Y0101787D01*
X0232620Y0101825D01*
X0232672Y0101859D01*
X0232726Y0101890D01*
X0232782Y0101918D01*
X0232840Y0101942D01*
X0232899Y0101963D01*
X0232959Y0101979D01*
X0233020Y0101992D01*
X0233082Y0102001D01*
X0233144Y0102006D01*
X0233207Y0102007D01*
X0233269Y0102004D01*
X0233331Y0101997D01*
X0233393Y0101986D01*
X0233453Y0101971D01*
X0233513Y0101953D01*
X0233571Y0101931D01*
X0233628Y0101905D01*
X0233683Y0101875D01*
X0233736Y0101842D01*
X0233787Y0101806D01*
X0233835Y0101767D01*
X0233881Y0101724D01*
X0233924Y0101679D01*
X0233964Y0101631D01*
X0234001Y0101581D01*
X0234035Y0101528D01*
X0234066Y0101474D01*
X0234092Y0101418D01*
X0234116Y0101360D01*
X0234135Y0101300D01*
X0234151Y0101240D01*
X0234163Y0101178D01*
X0234171Y0101117D01*
X0234175Y0101054D01*
X0234175Y0100992D01*
X0234171Y0100929D01*
X0234163Y0100868D01*
X0234151Y0100806D01*
X0234135Y0100746D01*
X0234116Y0100686D01*
X0234092Y0100628D01*
X0234066Y0100572D01*
X0234035Y0100518D01*
X0234001Y0100465D01*
X0233964Y0100415D01*
X0233924Y0100367D01*
X0233881Y0100322D01*
X0233835Y0100279D01*
X0233787Y0100240D01*
X0233736Y0100204D01*
X0233683Y0100171D01*
X0233628Y0100141D01*
X0233571Y0100115D01*
X0233513Y0100093D01*
X0233453Y0100075D01*
X0233393Y0100060D01*
X0233331Y0100049D01*
X0233269Y0100042D01*
X0233207Y0100039D01*
X0233144Y0100040D01*
X0233082Y0100045D01*
X0233020Y0100054D01*
X0232959Y0100067D01*
X0232899Y0100083D01*
X0232840Y0100104D01*
X0232782Y0100128D01*
X0232726Y0100156D01*
X0232672Y0100187D01*
X0232620Y0100221D01*
X0232571Y0100259D01*
X0232523Y0100300D01*
X0232479Y0100344D01*
X0232437Y0100390D01*
X0232399Y0100440D01*
X0232363Y0100491D01*
X0232331Y0100545D01*
X0232303Y0100600D01*
X0232277Y0100657D01*
X0232256Y0100716D01*
X0232239Y0100776D01*
X0232225Y0100837D01*
X0232215Y0100898D01*
X0232209Y0100961D01*
X0232207Y0101023D01*
X0234524Y0101023D02*
X0234526Y0101085D01*
X0234532Y0101148D01*
X0234542Y0101209D01*
X0234556Y0101270D01*
X0234573Y0101330D01*
X0234594Y0101389D01*
X0234620Y0101446D01*
X0234648Y0101501D01*
X0234680Y0101555D01*
X0234716Y0101606D01*
X0234754Y0101656D01*
X0234796Y0101702D01*
X0234840Y0101746D01*
X0234888Y0101787D01*
X0234937Y0101825D01*
X0234989Y0101859D01*
X0235043Y0101890D01*
X0235099Y0101918D01*
X0235157Y0101942D01*
X0235216Y0101963D01*
X0235276Y0101979D01*
X0235337Y0101992D01*
X0235399Y0102001D01*
X0235461Y0102006D01*
X0235524Y0102007D01*
X0235586Y0102004D01*
X0235648Y0101997D01*
X0235710Y0101986D01*
X0235770Y0101971D01*
X0235830Y0101953D01*
X0235888Y0101931D01*
X0235945Y0101905D01*
X0236000Y0101875D01*
X0236053Y0101842D01*
X0236104Y0101806D01*
X0236152Y0101767D01*
X0236198Y0101724D01*
X0236241Y0101679D01*
X0236281Y0101631D01*
X0236318Y0101581D01*
X0236352Y0101528D01*
X0236383Y0101474D01*
X0236409Y0101418D01*
X0236433Y0101360D01*
X0236452Y0101300D01*
X0236468Y0101240D01*
X0236480Y0101178D01*
X0236488Y0101117D01*
X0236492Y0101054D01*
X0236492Y0100992D01*
X0236488Y0100929D01*
X0236480Y0100868D01*
X0236468Y0100806D01*
X0236452Y0100746D01*
X0236433Y0100686D01*
X0236409Y0100628D01*
X0236383Y0100572D01*
X0236352Y0100518D01*
X0236318Y0100465D01*
X0236281Y0100415D01*
X0236241Y0100367D01*
X0236198Y0100322D01*
X0236152Y0100279D01*
X0236104Y0100240D01*
X0236053Y0100204D01*
X0236000Y0100171D01*
X0235945Y0100141D01*
X0235888Y0100115D01*
X0235830Y0100093D01*
X0235770Y0100075D01*
X0235710Y0100060D01*
X0235648Y0100049D01*
X0235586Y0100042D01*
X0235524Y0100039D01*
X0235461Y0100040D01*
X0235399Y0100045D01*
X0235337Y0100054D01*
X0235276Y0100067D01*
X0235216Y0100083D01*
X0235157Y0100104D01*
X0235099Y0100128D01*
X0235043Y0100156D01*
X0234989Y0100187D01*
X0234937Y0100221D01*
X0234888Y0100259D01*
X0234840Y0100300D01*
X0234796Y0100344D01*
X0234754Y0100390D01*
X0234716Y0100440D01*
X0234680Y0100491D01*
X0234648Y0100545D01*
X0234620Y0100600D01*
X0234594Y0100657D01*
X0234573Y0100716D01*
X0234556Y0100776D01*
X0234542Y0100837D01*
X0234532Y0100898D01*
X0234526Y0100961D01*
X0234524Y0101023D01*
X0236775Y0101023D02*
X0236777Y0101085D01*
X0236783Y0101148D01*
X0236793Y0101209D01*
X0236807Y0101270D01*
X0236824Y0101330D01*
X0236845Y0101389D01*
X0236871Y0101446D01*
X0236899Y0101501D01*
X0236931Y0101555D01*
X0236967Y0101606D01*
X0237005Y0101656D01*
X0237047Y0101702D01*
X0237091Y0101746D01*
X0237139Y0101787D01*
X0237188Y0101825D01*
X0237240Y0101859D01*
X0237294Y0101890D01*
X0237350Y0101918D01*
X0237408Y0101942D01*
X0237467Y0101963D01*
X0237527Y0101979D01*
X0237588Y0101992D01*
X0237650Y0102001D01*
X0237712Y0102006D01*
X0237775Y0102007D01*
X0237837Y0102004D01*
X0237899Y0101997D01*
X0237961Y0101986D01*
X0238021Y0101971D01*
X0238081Y0101953D01*
X0238139Y0101931D01*
X0238196Y0101905D01*
X0238251Y0101875D01*
X0238304Y0101842D01*
X0238355Y0101806D01*
X0238403Y0101767D01*
X0238449Y0101724D01*
X0238492Y0101679D01*
X0238532Y0101631D01*
X0238569Y0101581D01*
X0238603Y0101528D01*
X0238634Y0101474D01*
X0238660Y0101418D01*
X0238684Y0101360D01*
X0238703Y0101300D01*
X0238719Y0101240D01*
X0238731Y0101178D01*
X0238739Y0101117D01*
X0238743Y0101054D01*
X0238743Y0100992D01*
X0238739Y0100929D01*
X0238731Y0100868D01*
X0238719Y0100806D01*
X0238703Y0100746D01*
X0238684Y0100686D01*
X0238660Y0100628D01*
X0238634Y0100572D01*
X0238603Y0100518D01*
X0238569Y0100465D01*
X0238532Y0100415D01*
X0238492Y0100367D01*
X0238449Y0100322D01*
X0238403Y0100279D01*
X0238355Y0100240D01*
X0238304Y0100204D01*
X0238251Y0100171D01*
X0238196Y0100141D01*
X0238139Y0100115D01*
X0238081Y0100093D01*
X0238021Y0100075D01*
X0237961Y0100060D01*
X0237899Y0100049D01*
X0237837Y0100042D01*
X0237775Y0100039D01*
X0237712Y0100040D01*
X0237650Y0100045D01*
X0237588Y0100054D01*
X0237527Y0100067D01*
X0237467Y0100083D01*
X0237408Y0100104D01*
X0237350Y0100128D01*
X0237294Y0100156D01*
X0237240Y0100187D01*
X0237188Y0100221D01*
X0237139Y0100259D01*
X0237091Y0100300D01*
X0237047Y0100344D01*
X0237005Y0100390D01*
X0236967Y0100440D01*
X0236931Y0100491D01*
X0236899Y0100545D01*
X0236871Y0100600D01*
X0236845Y0100657D01*
X0236824Y0100716D01*
X0236807Y0100776D01*
X0236793Y0100837D01*
X0236783Y0100898D01*
X0236777Y0100961D01*
X0236775Y0101023D01*
X0239092Y0101023D02*
X0239094Y0101085D01*
X0239100Y0101148D01*
X0239110Y0101209D01*
X0239124Y0101270D01*
X0239141Y0101330D01*
X0239162Y0101389D01*
X0239188Y0101446D01*
X0239216Y0101501D01*
X0239248Y0101555D01*
X0239284Y0101606D01*
X0239322Y0101656D01*
X0239364Y0101702D01*
X0239408Y0101746D01*
X0239456Y0101787D01*
X0239505Y0101825D01*
X0239557Y0101859D01*
X0239611Y0101890D01*
X0239667Y0101918D01*
X0239725Y0101942D01*
X0239784Y0101963D01*
X0239844Y0101979D01*
X0239905Y0101992D01*
X0239967Y0102001D01*
X0240029Y0102006D01*
X0240092Y0102007D01*
X0240154Y0102004D01*
X0240216Y0101997D01*
X0240278Y0101986D01*
X0240338Y0101971D01*
X0240398Y0101953D01*
X0240456Y0101931D01*
X0240513Y0101905D01*
X0240568Y0101875D01*
X0240621Y0101842D01*
X0240672Y0101806D01*
X0240720Y0101767D01*
X0240766Y0101724D01*
X0240809Y0101679D01*
X0240849Y0101631D01*
X0240886Y0101581D01*
X0240920Y0101528D01*
X0240951Y0101474D01*
X0240977Y0101418D01*
X0241001Y0101360D01*
X0241020Y0101300D01*
X0241036Y0101240D01*
X0241048Y0101178D01*
X0241056Y0101117D01*
X0241060Y0101054D01*
X0241060Y0100992D01*
X0241056Y0100929D01*
X0241048Y0100868D01*
X0241036Y0100806D01*
X0241020Y0100746D01*
X0241001Y0100686D01*
X0240977Y0100628D01*
X0240951Y0100572D01*
X0240920Y0100518D01*
X0240886Y0100465D01*
X0240849Y0100415D01*
X0240809Y0100367D01*
X0240766Y0100322D01*
X0240720Y0100279D01*
X0240672Y0100240D01*
X0240621Y0100204D01*
X0240568Y0100171D01*
X0240513Y0100141D01*
X0240456Y0100115D01*
X0240398Y0100093D01*
X0240338Y0100075D01*
X0240278Y0100060D01*
X0240216Y0100049D01*
X0240154Y0100042D01*
X0240092Y0100039D01*
X0240029Y0100040D01*
X0239967Y0100045D01*
X0239905Y0100054D01*
X0239844Y0100067D01*
X0239784Y0100083D01*
X0239725Y0100104D01*
X0239667Y0100128D01*
X0239611Y0100156D01*
X0239557Y0100187D01*
X0239505Y0100221D01*
X0239456Y0100259D01*
X0239408Y0100300D01*
X0239364Y0100344D01*
X0239322Y0100390D01*
X0239284Y0100440D01*
X0239248Y0100491D01*
X0239216Y0100545D01*
X0239188Y0100600D01*
X0239162Y0100657D01*
X0239141Y0100716D01*
X0239124Y0100776D01*
X0239110Y0100837D01*
X0239100Y0100898D01*
X0239094Y0100961D01*
X0239092Y0101023D01*
X0241507Y0101023D02*
X0241509Y0101085D01*
X0241515Y0101148D01*
X0241525Y0101209D01*
X0241539Y0101270D01*
X0241556Y0101330D01*
X0241577Y0101389D01*
X0241603Y0101446D01*
X0241631Y0101501D01*
X0241663Y0101555D01*
X0241699Y0101606D01*
X0241737Y0101656D01*
X0241779Y0101702D01*
X0241823Y0101746D01*
X0241871Y0101787D01*
X0241920Y0101825D01*
X0241972Y0101859D01*
X0242026Y0101890D01*
X0242082Y0101918D01*
X0242140Y0101942D01*
X0242199Y0101963D01*
X0242259Y0101979D01*
X0242320Y0101992D01*
X0242382Y0102001D01*
X0242444Y0102006D01*
X0242507Y0102007D01*
X0242569Y0102004D01*
X0242631Y0101997D01*
X0242693Y0101986D01*
X0242753Y0101971D01*
X0242813Y0101953D01*
X0242871Y0101931D01*
X0242928Y0101905D01*
X0242983Y0101875D01*
X0243036Y0101842D01*
X0243087Y0101806D01*
X0243135Y0101767D01*
X0243181Y0101724D01*
X0243224Y0101679D01*
X0243264Y0101631D01*
X0243301Y0101581D01*
X0243335Y0101528D01*
X0243366Y0101474D01*
X0243392Y0101418D01*
X0243416Y0101360D01*
X0243435Y0101300D01*
X0243451Y0101240D01*
X0243463Y0101178D01*
X0243471Y0101117D01*
X0243475Y0101054D01*
X0243475Y0100992D01*
X0243471Y0100929D01*
X0243463Y0100868D01*
X0243451Y0100806D01*
X0243435Y0100746D01*
X0243416Y0100686D01*
X0243392Y0100628D01*
X0243366Y0100572D01*
X0243335Y0100518D01*
X0243301Y0100465D01*
X0243264Y0100415D01*
X0243224Y0100367D01*
X0243181Y0100322D01*
X0243135Y0100279D01*
X0243087Y0100240D01*
X0243036Y0100204D01*
X0242983Y0100171D01*
X0242928Y0100141D01*
X0242871Y0100115D01*
X0242813Y0100093D01*
X0242753Y0100075D01*
X0242693Y0100060D01*
X0242631Y0100049D01*
X0242569Y0100042D01*
X0242507Y0100039D01*
X0242444Y0100040D01*
X0242382Y0100045D01*
X0242320Y0100054D01*
X0242259Y0100067D01*
X0242199Y0100083D01*
X0242140Y0100104D01*
X0242082Y0100128D01*
X0242026Y0100156D01*
X0241972Y0100187D01*
X0241920Y0100221D01*
X0241871Y0100259D01*
X0241823Y0100300D01*
X0241779Y0100344D01*
X0241737Y0100390D01*
X0241699Y0100440D01*
X0241663Y0100491D01*
X0241631Y0100545D01*
X0241603Y0100600D01*
X0241577Y0100657D01*
X0241556Y0100716D01*
X0241539Y0100776D01*
X0241525Y0100837D01*
X0241515Y0100898D01*
X0241509Y0100961D01*
X0241507Y0101023D01*
X0243824Y0101002D02*
X0243826Y0101064D01*
X0243832Y0101127D01*
X0243842Y0101188D01*
X0243856Y0101249D01*
X0243873Y0101309D01*
X0243894Y0101368D01*
X0243920Y0101425D01*
X0243948Y0101480D01*
X0243980Y0101534D01*
X0244016Y0101585D01*
X0244054Y0101635D01*
X0244096Y0101681D01*
X0244140Y0101725D01*
X0244188Y0101766D01*
X0244237Y0101804D01*
X0244289Y0101838D01*
X0244343Y0101869D01*
X0244399Y0101897D01*
X0244457Y0101921D01*
X0244516Y0101942D01*
X0244576Y0101958D01*
X0244637Y0101971D01*
X0244699Y0101980D01*
X0244761Y0101985D01*
X0244824Y0101986D01*
X0244886Y0101983D01*
X0244948Y0101976D01*
X0245010Y0101965D01*
X0245070Y0101950D01*
X0245130Y0101932D01*
X0245188Y0101910D01*
X0245245Y0101884D01*
X0245300Y0101854D01*
X0245353Y0101821D01*
X0245404Y0101785D01*
X0245452Y0101746D01*
X0245498Y0101703D01*
X0245541Y0101658D01*
X0245581Y0101610D01*
X0245618Y0101560D01*
X0245652Y0101507D01*
X0245683Y0101453D01*
X0245709Y0101397D01*
X0245733Y0101339D01*
X0245752Y0101279D01*
X0245768Y0101219D01*
X0245780Y0101157D01*
X0245788Y0101096D01*
X0245792Y0101033D01*
X0245792Y0100971D01*
X0245788Y0100908D01*
X0245780Y0100847D01*
X0245768Y0100785D01*
X0245752Y0100725D01*
X0245733Y0100665D01*
X0245709Y0100607D01*
X0245683Y0100551D01*
X0245652Y0100497D01*
X0245618Y0100444D01*
X0245581Y0100394D01*
X0245541Y0100346D01*
X0245498Y0100301D01*
X0245452Y0100258D01*
X0245404Y0100219D01*
X0245353Y0100183D01*
X0245300Y0100150D01*
X0245245Y0100120D01*
X0245188Y0100094D01*
X0245130Y0100072D01*
X0245070Y0100054D01*
X0245010Y0100039D01*
X0244948Y0100028D01*
X0244886Y0100021D01*
X0244824Y0100018D01*
X0244761Y0100019D01*
X0244699Y0100024D01*
X0244637Y0100033D01*
X0244576Y0100046D01*
X0244516Y0100062D01*
X0244457Y0100083D01*
X0244399Y0100107D01*
X0244343Y0100135D01*
X0244289Y0100166D01*
X0244237Y0100200D01*
X0244188Y0100238D01*
X0244140Y0100279D01*
X0244096Y0100323D01*
X0244054Y0100369D01*
X0244016Y0100419D01*
X0243980Y0100470D01*
X0243948Y0100524D01*
X0243920Y0100579D01*
X0243894Y0100636D01*
X0243873Y0100695D01*
X0243856Y0100755D01*
X0243842Y0100816D01*
X0243832Y0100877D01*
X0243826Y0100940D01*
X0243824Y0101002D01*
X0246075Y0101002D02*
X0246077Y0101064D01*
X0246083Y0101127D01*
X0246093Y0101188D01*
X0246107Y0101249D01*
X0246124Y0101309D01*
X0246145Y0101368D01*
X0246171Y0101425D01*
X0246199Y0101480D01*
X0246231Y0101534D01*
X0246267Y0101585D01*
X0246305Y0101635D01*
X0246347Y0101681D01*
X0246391Y0101725D01*
X0246439Y0101766D01*
X0246488Y0101804D01*
X0246540Y0101838D01*
X0246594Y0101869D01*
X0246650Y0101897D01*
X0246708Y0101921D01*
X0246767Y0101942D01*
X0246827Y0101958D01*
X0246888Y0101971D01*
X0246950Y0101980D01*
X0247012Y0101985D01*
X0247075Y0101986D01*
X0247137Y0101983D01*
X0247199Y0101976D01*
X0247261Y0101965D01*
X0247321Y0101950D01*
X0247381Y0101932D01*
X0247439Y0101910D01*
X0247496Y0101884D01*
X0247551Y0101854D01*
X0247604Y0101821D01*
X0247655Y0101785D01*
X0247703Y0101746D01*
X0247749Y0101703D01*
X0247792Y0101658D01*
X0247832Y0101610D01*
X0247869Y0101560D01*
X0247903Y0101507D01*
X0247934Y0101453D01*
X0247960Y0101397D01*
X0247984Y0101339D01*
X0248003Y0101279D01*
X0248019Y0101219D01*
X0248031Y0101157D01*
X0248039Y0101096D01*
X0248043Y0101033D01*
X0248043Y0100971D01*
X0248039Y0100908D01*
X0248031Y0100847D01*
X0248019Y0100785D01*
X0248003Y0100725D01*
X0247984Y0100665D01*
X0247960Y0100607D01*
X0247934Y0100551D01*
X0247903Y0100497D01*
X0247869Y0100444D01*
X0247832Y0100394D01*
X0247792Y0100346D01*
X0247749Y0100301D01*
X0247703Y0100258D01*
X0247655Y0100219D01*
X0247604Y0100183D01*
X0247551Y0100150D01*
X0247496Y0100120D01*
X0247439Y0100094D01*
X0247381Y0100072D01*
X0247321Y0100054D01*
X0247261Y0100039D01*
X0247199Y0100028D01*
X0247137Y0100021D01*
X0247075Y0100018D01*
X0247012Y0100019D01*
X0246950Y0100024D01*
X0246888Y0100033D01*
X0246827Y0100046D01*
X0246767Y0100062D01*
X0246708Y0100083D01*
X0246650Y0100107D01*
X0246594Y0100135D01*
X0246540Y0100166D01*
X0246488Y0100200D01*
X0246439Y0100238D01*
X0246391Y0100279D01*
X0246347Y0100323D01*
X0246305Y0100369D01*
X0246267Y0100419D01*
X0246231Y0100470D01*
X0246199Y0100524D01*
X0246171Y0100579D01*
X0246145Y0100636D01*
X0246124Y0100695D01*
X0246107Y0100755D01*
X0246093Y0100816D01*
X0246083Y0100877D01*
X0246077Y0100940D01*
X0246075Y0101002D01*
X0246069Y0095172D02*
X0246071Y0095234D01*
X0246077Y0095297D01*
X0246087Y0095358D01*
X0246101Y0095419D01*
X0246118Y0095479D01*
X0246139Y0095538D01*
X0246165Y0095595D01*
X0246193Y0095650D01*
X0246225Y0095704D01*
X0246261Y0095755D01*
X0246299Y0095805D01*
X0246341Y0095851D01*
X0246385Y0095895D01*
X0246433Y0095936D01*
X0246482Y0095974D01*
X0246534Y0096008D01*
X0246588Y0096039D01*
X0246644Y0096067D01*
X0246702Y0096091D01*
X0246761Y0096112D01*
X0246821Y0096128D01*
X0246882Y0096141D01*
X0246944Y0096150D01*
X0247006Y0096155D01*
X0247069Y0096156D01*
X0247131Y0096153D01*
X0247193Y0096146D01*
X0247255Y0096135D01*
X0247315Y0096120D01*
X0247375Y0096102D01*
X0247433Y0096080D01*
X0247490Y0096054D01*
X0247545Y0096024D01*
X0247598Y0095991D01*
X0247649Y0095955D01*
X0247697Y0095916D01*
X0247743Y0095873D01*
X0247786Y0095828D01*
X0247826Y0095780D01*
X0247863Y0095730D01*
X0247897Y0095677D01*
X0247928Y0095623D01*
X0247954Y0095567D01*
X0247978Y0095509D01*
X0247997Y0095449D01*
X0248013Y0095389D01*
X0248025Y0095327D01*
X0248033Y0095266D01*
X0248037Y0095203D01*
X0248037Y0095141D01*
X0248033Y0095078D01*
X0248025Y0095017D01*
X0248013Y0094955D01*
X0247997Y0094895D01*
X0247978Y0094835D01*
X0247954Y0094777D01*
X0247928Y0094721D01*
X0247897Y0094667D01*
X0247863Y0094614D01*
X0247826Y0094564D01*
X0247786Y0094516D01*
X0247743Y0094471D01*
X0247697Y0094428D01*
X0247649Y0094389D01*
X0247598Y0094353D01*
X0247545Y0094320D01*
X0247490Y0094290D01*
X0247433Y0094264D01*
X0247375Y0094242D01*
X0247315Y0094224D01*
X0247255Y0094209D01*
X0247193Y0094198D01*
X0247131Y0094191D01*
X0247069Y0094188D01*
X0247006Y0094189D01*
X0246944Y0094194D01*
X0246882Y0094203D01*
X0246821Y0094216D01*
X0246761Y0094232D01*
X0246702Y0094253D01*
X0246644Y0094277D01*
X0246588Y0094305D01*
X0246534Y0094336D01*
X0246482Y0094370D01*
X0246433Y0094408D01*
X0246385Y0094449D01*
X0246341Y0094493D01*
X0246299Y0094539D01*
X0246261Y0094589D01*
X0246225Y0094640D01*
X0246193Y0094694D01*
X0246165Y0094749D01*
X0246139Y0094806D01*
X0246118Y0094865D01*
X0246101Y0094925D01*
X0246087Y0094986D01*
X0246077Y0095047D01*
X0246071Y0095110D01*
X0246069Y0095172D01*
X0243818Y0095172D02*
X0243820Y0095234D01*
X0243826Y0095297D01*
X0243836Y0095358D01*
X0243850Y0095419D01*
X0243867Y0095479D01*
X0243888Y0095538D01*
X0243914Y0095595D01*
X0243942Y0095650D01*
X0243974Y0095704D01*
X0244010Y0095755D01*
X0244048Y0095805D01*
X0244090Y0095851D01*
X0244134Y0095895D01*
X0244182Y0095936D01*
X0244231Y0095974D01*
X0244283Y0096008D01*
X0244337Y0096039D01*
X0244393Y0096067D01*
X0244451Y0096091D01*
X0244510Y0096112D01*
X0244570Y0096128D01*
X0244631Y0096141D01*
X0244693Y0096150D01*
X0244755Y0096155D01*
X0244818Y0096156D01*
X0244880Y0096153D01*
X0244942Y0096146D01*
X0245004Y0096135D01*
X0245064Y0096120D01*
X0245124Y0096102D01*
X0245182Y0096080D01*
X0245239Y0096054D01*
X0245294Y0096024D01*
X0245347Y0095991D01*
X0245398Y0095955D01*
X0245446Y0095916D01*
X0245492Y0095873D01*
X0245535Y0095828D01*
X0245575Y0095780D01*
X0245612Y0095730D01*
X0245646Y0095677D01*
X0245677Y0095623D01*
X0245703Y0095567D01*
X0245727Y0095509D01*
X0245746Y0095449D01*
X0245762Y0095389D01*
X0245774Y0095327D01*
X0245782Y0095266D01*
X0245786Y0095203D01*
X0245786Y0095141D01*
X0245782Y0095078D01*
X0245774Y0095017D01*
X0245762Y0094955D01*
X0245746Y0094895D01*
X0245727Y0094835D01*
X0245703Y0094777D01*
X0245677Y0094721D01*
X0245646Y0094667D01*
X0245612Y0094614D01*
X0245575Y0094564D01*
X0245535Y0094516D01*
X0245492Y0094471D01*
X0245446Y0094428D01*
X0245398Y0094389D01*
X0245347Y0094353D01*
X0245294Y0094320D01*
X0245239Y0094290D01*
X0245182Y0094264D01*
X0245124Y0094242D01*
X0245064Y0094224D01*
X0245004Y0094209D01*
X0244942Y0094198D01*
X0244880Y0094191D01*
X0244818Y0094188D01*
X0244755Y0094189D01*
X0244693Y0094194D01*
X0244631Y0094203D01*
X0244570Y0094216D01*
X0244510Y0094232D01*
X0244451Y0094253D01*
X0244393Y0094277D01*
X0244337Y0094305D01*
X0244283Y0094336D01*
X0244231Y0094370D01*
X0244182Y0094408D01*
X0244134Y0094449D01*
X0244090Y0094493D01*
X0244048Y0094539D01*
X0244010Y0094589D01*
X0243974Y0094640D01*
X0243942Y0094694D01*
X0243914Y0094749D01*
X0243888Y0094806D01*
X0243867Y0094865D01*
X0243850Y0094925D01*
X0243836Y0094986D01*
X0243826Y0095047D01*
X0243820Y0095110D01*
X0243818Y0095172D01*
X0241501Y0095172D02*
X0241503Y0095234D01*
X0241509Y0095297D01*
X0241519Y0095358D01*
X0241533Y0095419D01*
X0241550Y0095479D01*
X0241571Y0095538D01*
X0241597Y0095595D01*
X0241625Y0095650D01*
X0241657Y0095704D01*
X0241693Y0095755D01*
X0241731Y0095805D01*
X0241773Y0095851D01*
X0241817Y0095895D01*
X0241865Y0095936D01*
X0241914Y0095974D01*
X0241966Y0096008D01*
X0242020Y0096039D01*
X0242076Y0096067D01*
X0242134Y0096091D01*
X0242193Y0096112D01*
X0242253Y0096128D01*
X0242314Y0096141D01*
X0242376Y0096150D01*
X0242438Y0096155D01*
X0242501Y0096156D01*
X0242563Y0096153D01*
X0242625Y0096146D01*
X0242687Y0096135D01*
X0242747Y0096120D01*
X0242807Y0096102D01*
X0242865Y0096080D01*
X0242922Y0096054D01*
X0242977Y0096024D01*
X0243030Y0095991D01*
X0243081Y0095955D01*
X0243129Y0095916D01*
X0243175Y0095873D01*
X0243218Y0095828D01*
X0243258Y0095780D01*
X0243295Y0095730D01*
X0243329Y0095677D01*
X0243360Y0095623D01*
X0243386Y0095567D01*
X0243410Y0095509D01*
X0243429Y0095449D01*
X0243445Y0095389D01*
X0243457Y0095327D01*
X0243465Y0095266D01*
X0243469Y0095203D01*
X0243469Y0095141D01*
X0243465Y0095078D01*
X0243457Y0095017D01*
X0243445Y0094955D01*
X0243429Y0094895D01*
X0243410Y0094835D01*
X0243386Y0094777D01*
X0243360Y0094721D01*
X0243329Y0094667D01*
X0243295Y0094614D01*
X0243258Y0094564D01*
X0243218Y0094516D01*
X0243175Y0094471D01*
X0243129Y0094428D01*
X0243081Y0094389D01*
X0243030Y0094353D01*
X0242977Y0094320D01*
X0242922Y0094290D01*
X0242865Y0094264D01*
X0242807Y0094242D01*
X0242747Y0094224D01*
X0242687Y0094209D01*
X0242625Y0094198D01*
X0242563Y0094191D01*
X0242501Y0094188D01*
X0242438Y0094189D01*
X0242376Y0094194D01*
X0242314Y0094203D01*
X0242253Y0094216D01*
X0242193Y0094232D01*
X0242134Y0094253D01*
X0242076Y0094277D01*
X0242020Y0094305D01*
X0241966Y0094336D01*
X0241914Y0094370D01*
X0241865Y0094408D01*
X0241817Y0094449D01*
X0241773Y0094493D01*
X0241731Y0094539D01*
X0241693Y0094589D01*
X0241657Y0094640D01*
X0241625Y0094694D01*
X0241597Y0094749D01*
X0241571Y0094806D01*
X0241550Y0094865D01*
X0241533Y0094925D01*
X0241519Y0094986D01*
X0241509Y0095047D01*
X0241503Y0095110D01*
X0241501Y0095172D01*
X0239087Y0095193D02*
X0239089Y0095255D01*
X0239095Y0095318D01*
X0239105Y0095379D01*
X0239119Y0095440D01*
X0239136Y0095500D01*
X0239157Y0095559D01*
X0239183Y0095616D01*
X0239211Y0095671D01*
X0239243Y0095725D01*
X0239279Y0095776D01*
X0239317Y0095826D01*
X0239359Y0095872D01*
X0239403Y0095916D01*
X0239451Y0095957D01*
X0239500Y0095995D01*
X0239552Y0096029D01*
X0239606Y0096060D01*
X0239662Y0096088D01*
X0239720Y0096112D01*
X0239779Y0096133D01*
X0239839Y0096149D01*
X0239900Y0096162D01*
X0239962Y0096171D01*
X0240024Y0096176D01*
X0240087Y0096177D01*
X0240149Y0096174D01*
X0240211Y0096167D01*
X0240273Y0096156D01*
X0240333Y0096141D01*
X0240393Y0096123D01*
X0240451Y0096101D01*
X0240508Y0096075D01*
X0240563Y0096045D01*
X0240616Y0096012D01*
X0240667Y0095976D01*
X0240715Y0095937D01*
X0240761Y0095894D01*
X0240804Y0095849D01*
X0240844Y0095801D01*
X0240881Y0095751D01*
X0240915Y0095698D01*
X0240946Y0095644D01*
X0240972Y0095588D01*
X0240996Y0095530D01*
X0241015Y0095470D01*
X0241031Y0095410D01*
X0241043Y0095348D01*
X0241051Y0095287D01*
X0241055Y0095224D01*
X0241055Y0095162D01*
X0241051Y0095099D01*
X0241043Y0095038D01*
X0241031Y0094976D01*
X0241015Y0094916D01*
X0240996Y0094856D01*
X0240972Y0094798D01*
X0240946Y0094742D01*
X0240915Y0094688D01*
X0240881Y0094635D01*
X0240844Y0094585D01*
X0240804Y0094537D01*
X0240761Y0094492D01*
X0240715Y0094449D01*
X0240667Y0094410D01*
X0240616Y0094374D01*
X0240563Y0094341D01*
X0240508Y0094311D01*
X0240451Y0094285D01*
X0240393Y0094263D01*
X0240333Y0094245D01*
X0240273Y0094230D01*
X0240211Y0094219D01*
X0240149Y0094212D01*
X0240087Y0094209D01*
X0240024Y0094210D01*
X0239962Y0094215D01*
X0239900Y0094224D01*
X0239839Y0094237D01*
X0239779Y0094253D01*
X0239720Y0094274D01*
X0239662Y0094298D01*
X0239606Y0094326D01*
X0239552Y0094357D01*
X0239500Y0094391D01*
X0239451Y0094429D01*
X0239403Y0094470D01*
X0239359Y0094514D01*
X0239317Y0094560D01*
X0239279Y0094610D01*
X0239243Y0094661D01*
X0239211Y0094715D01*
X0239183Y0094770D01*
X0239157Y0094827D01*
X0239136Y0094886D01*
X0239119Y0094946D01*
X0239105Y0095007D01*
X0239095Y0095068D01*
X0239089Y0095131D01*
X0239087Y0095193D01*
X0236770Y0095193D02*
X0236772Y0095255D01*
X0236778Y0095318D01*
X0236788Y0095379D01*
X0236802Y0095440D01*
X0236819Y0095500D01*
X0236840Y0095559D01*
X0236866Y0095616D01*
X0236894Y0095671D01*
X0236926Y0095725D01*
X0236962Y0095776D01*
X0237000Y0095826D01*
X0237042Y0095872D01*
X0237086Y0095916D01*
X0237134Y0095957D01*
X0237183Y0095995D01*
X0237235Y0096029D01*
X0237289Y0096060D01*
X0237345Y0096088D01*
X0237403Y0096112D01*
X0237462Y0096133D01*
X0237522Y0096149D01*
X0237583Y0096162D01*
X0237645Y0096171D01*
X0237707Y0096176D01*
X0237770Y0096177D01*
X0237832Y0096174D01*
X0237894Y0096167D01*
X0237956Y0096156D01*
X0238016Y0096141D01*
X0238076Y0096123D01*
X0238134Y0096101D01*
X0238191Y0096075D01*
X0238246Y0096045D01*
X0238299Y0096012D01*
X0238350Y0095976D01*
X0238398Y0095937D01*
X0238444Y0095894D01*
X0238487Y0095849D01*
X0238527Y0095801D01*
X0238564Y0095751D01*
X0238598Y0095698D01*
X0238629Y0095644D01*
X0238655Y0095588D01*
X0238679Y0095530D01*
X0238698Y0095470D01*
X0238714Y0095410D01*
X0238726Y0095348D01*
X0238734Y0095287D01*
X0238738Y0095224D01*
X0238738Y0095162D01*
X0238734Y0095099D01*
X0238726Y0095038D01*
X0238714Y0094976D01*
X0238698Y0094916D01*
X0238679Y0094856D01*
X0238655Y0094798D01*
X0238629Y0094742D01*
X0238598Y0094688D01*
X0238564Y0094635D01*
X0238527Y0094585D01*
X0238487Y0094537D01*
X0238444Y0094492D01*
X0238398Y0094449D01*
X0238350Y0094410D01*
X0238299Y0094374D01*
X0238246Y0094341D01*
X0238191Y0094311D01*
X0238134Y0094285D01*
X0238076Y0094263D01*
X0238016Y0094245D01*
X0237956Y0094230D01*
X0237894Y0094219D01*
X0237832Y0094212D01*
X0237770Y0094209D01*
X0237707Y0094210D01*
X0237645Y0094215D01*
X0237583Y0094224D01*
X0237522Y0094237D01*
X0237462Y0094253D01*
X0237403Y0094274D01*
X0237345Y0094298D01*
X0237289Y0094326D01*
X0237235Y0094357D01*
X0237183Y0094391D01*
X0237134Y0094429D01*
X0237086Y0094470D01*
X0237042Y0094514D01*
X0237000Y0094560D01*
X0236962Y0094610D01*
X0236926Y0094661D01*
X0236894Y0094715D01*
X0236866Y0094770D01*
X0236840Y0094827D01*
X0236819Y0094886D01*
X0236802Y0094946D01*
X0236788Y0095007D01*
X0236778Y0095068D01*
X0236772Y0095131D01*
X0236770Y0095193D01*
X0234519Y0095193D02*
X0234521Y0095255D01*
X0234527Y0095318D01*
X0234537Y0095379D01*
X0234551Y0095440D01*
X0234568Y0095500D01*
X0234589Y0095559D01*
X0234615Y0095616D01*
X0234643Y0095671D01*
X0234675Y0095725D01*
X0234711Y0095776D01*
X0234749Y0095826D01*
X0234791Y0095872D01*
X0234835Y0095916D01*
X0234883Y0095957D01*
X0234932Y0095995D01*
X0234984Y0096029D01*
X0235038Y0096060D01*
X0235094Y0096088D01*
X0235152Y0096112D01*
X0235211Y0096133D01*
X0235271Y0096149D01*
X0235332Y0096162D01*
X0235394Y0096171D01*
X0235456Y0096176D01*
X0235519Y0096177D01*
X0235581Y0096174D01*
X0235643Y0096167D01*
X0235705Y0096156D01*
X0235765Y0096141D01*
X0235825Y0096123D01*
X0235883Y0096101D01*
X0235940Y0096075D01*
X0235995Y0096045D01*
X0236048Y0096012D01*
X0236099Y0095976D01*
X0236147Y0095937D01*
X0236193Y0095894D01*
X0236236Y0095849D01*
X0236276Y0095801D01*
X0236313Y0095751D01*
X0236347Y0095698D01*
X0236378Y0095644D01*
X0236404Y0095588D01*
X0236428Y0095530D01*
X0236447Y0095470D01*
X0236463Y0095410D01*
X0236475Y0095348D01*
X0236483Y0095287D01*
X0236487Y0095224D01*
X0236487Y0095162D01*
X0236483Y0095099D01*
X0236475Y0095038D01*
X0236463Y0094976D01*
X0236447Y0094916D01*
X0236428Y0094856D01*
X0236404Y0094798D01*
X0236378Y0094742D01*
X0236347Y0094688D01*
X0236313Y0094635D01*
X0236276Y0094585D01*
X0236236Y0094537D01*
X0236193Y0094492D01*
X0236147Y0094449D01*
X0236099Y0094410D01*
X0236048Y0094374D01*
X0235995Y0094341D01*
X0235940Y0094311D01*
X0235883Y0094285D01*
X0235825Y0094263D01*
X0235765Y0094245D01*
X0235705Y0094230D01*
X0235643Y0094219D01*
X0235581Y0094212D01*
X0235519Y0094209D01*
X0235456Y0094210D01*
X0235394Y0094215D01*
X0235332Y0094224D01*
X0235271Y0094237D01*
X0235211Y0094253D01*
X0235152Y0094274D01*
X0235094Y0094298D01*
X0235038Y0094326D01*
X0234984Y0094357D01*
X0234932Y0094391D01*
X0234883Y0094429D01*
X0234835Y0094470D01*
X0234791Y0094514D01*
X0234749Y0094560D01*
X0234711Y0094610D01*
X0234675Y0094661D01*
X0234643Y0094715D01*
X0234615Y0094770D01*
X0234589Y0094827D01*
X0234568Y0094886D01*
X0234551Y0094946D01*
X0234537Y0095007D01*
X0234527Y0095068D01*
X0234521Y0095131D01*
X0234519Y0095193D01*
X0232202Y0095193D02*
X0232204Y0095255D01*
X0232210Y0095318D01*
X0232220Y0095379D01*
X0232234Y0095440D01*
X0232251Y0095500D01*
X0232272Y0095559D01*
X0232298Y0095616D01*
X0232326Y0095671D01*
X0232358Y0095725D01*
X0232394Y0095776D01*
X0232432Y0095826D01*
X0232474Y0095872D01*
X0232518Y0095916D01*
X0232566Y0095957D01*
X0232615Y0095995D01*
X0232667Y0096029D01*
X0232721Y0096060D01*
X0232777Y0096088D01*
X0232835Y0096112D01*
X0232894Y0096133D01*
X0232954Y0096149D01*
X0233015Y0096162D01*
X0233077Y0096171D01*
X0233139Y0096176D01*
X0233202Y0096177D01*
X0233264Y0096174D01*
X0233326Y0096167D01*
X0233388Y0096156D01*
X0233448Y0096141D01*
X0233508Y0096123D01*
X0233566Y0096101D01*
X0233623Y0096075D01*
X0233678Y0096045D01*
X0233731Y0096012D01*
X0233782Y0095976D01*
X0233830Y0095937D01*
X0233876Y0095894D01*
X0233919Y0095849D01*
X0233959Y0095801D01*
X0233996Y0095751D01*
X0234030Y0095698D01*
X0234061Y0095644D01*
X0234087Y0095588D01*
X0234111Y0095530D01*
X0234130Y0095470D01*
X0234146Y0095410D01*
X0234158Y0095348D01*
X0234166Y0095287D01*
X0234170Y0095224D01*
X0234170Y0095162D01*
X0234166Y0095099D01*
X0234158Y0095038D01*
X0234146Y0094976D01*
X0234130Y0094916D01*
X0234111Y0094856D01*
X0234087Y0094798D01*
X0234061Y0094742D01*
X0234030Y0094688D01*
X0233996Y0094635D01*
X0233959Y0094585D01*
X0233919Y0094537D01*
X0233876Y0094492D01*
X0233830Y0094449D01*
X0233782Y0094410D01*
X0233731Y0094374D01*
X0233678Y0094341D01*
X0233623Y0094311D01*
X0233566Y0094285D01*
X0233508Y0094263D01*
X0233448Y0094245D01*
X0233388Y0094230D01*
X0233326Y0094219D01*
X0233264Y0094212D01*
X0233202Y0094209D01*
X0233139Y0094210D01*
X0233077Y0094215D01*
X0233015Y0094224D01*
X0232954Y0094237D01*
X0232894Y0094253D01*
X0232835Y0094274D01*
X0232777Y0094298D01*
X0232721Y0094326D01*
X0232667Y0094357D01*
X0232615Y0094391D01*
X0232566Y0094429D01*
X0232518Y0094470D01*
X0232474Y0094514D01*
X0232432Y0094560D01*
X0232394Y0094610D01*
X0232358Y0094661D01*
X0232326Y0094715D01*
X0232298Y0094770D01*
X0232272Y0094827D01*
X0232251Y0094886D01*
X0232234Y0094946D01*
X0232220Y0095007D01*
X0232210Y0095068D01*
X0232204Y0095131D01*
X0232202Y0095193D01*
X0229925Y0095193D02*
X0229927Y0095255D01*
X0229933Y0095318D01*
X0229943Y0095379D01*
X0229957Y0095440D01*
X0229974Y0095500D01*
X0229995Y0095559D01*
X0230021Y0095616D01*
X0230049Y0095671D01*
X0230081Y0095725D01*
X0230117Y0095776D01*
X0230155Y0095826D01*
X0230197Y0095872D01*
X0230241Y0095916D01*
X0230289Y0095957D01*
X0230338Y0095995D01*
X0230390Y0096029D01*
X0230444Y0096060D01*
X0230500Y0096088D01*
X0230558Y0096112D01*
X0230617Y0096133D01*
X0230677Y0096149D01*
X0230738Y0096162D01*
X0230800Y0096171D01*
X0230862Y0096176D01*
X0230925Y0096177D01*
X0230987Y0096174D01*
X0231049Y0096167D01*
X0231111Y0096156D01*
X0231171Y0096141D01*
X0231231Y0096123D01*
X0231289Y0096101D01*
X0231346Y0096075D01*
X0231401Y0096045D01*
X0231454Y0096012D01*
X0231505Y0095976D01*
X0231553Y0095937D01*
X0231599Y0095894D01*
X0231642Y0095849D01*
X0231682Y0095801D01*
X0231719Y0095751D01*
X0231753Y0095698D01*
X0231784Y0095644D01*
X0231810Y0095588D01*
X0231834Y0095530D01*
X0231853Y0095470D01*
X0231869Y0095410D01*
X0231881Y0095348D01*
X0231889Y0095287D01*
X0231893Y0095224D01*
X0231893Y0095162D01*
X0231889Y0095099D01*
X0231881Y0095038D01*
X0231869Y0094976D01*
X0231853Y0094916D01*
X0231834Y0094856D01*
X0231810Y0094798D01*
X0231784Y0094742D01*
X0231753Y0094688D01*
X0231719Y0094635D01*
X0231682Y0094585D01*
X0231642Y0094537D01*
X0231599Y0094492D01*
X0231553Y0094449D01*
X0231505Y0094410D01*
X0231454Y0094374D01*
X0231401Y0094341D01*
X0231346Y0094311D01*
X0231289Y0094285D01*
X0231231Y0094263D01*
X0231171Y0094245D01*
X0231111Y0094230D01*
X0231049Y0094219D01*
X0230987Y0094212D01*
X0230925Y0094209D01*
X0230862Y0094210D01*
X0230800Y0094215D01*
X0230738Y0094224D01*
X0230677Y0094237D01*
X0230617Y0094253D01*
X0230558Y0094274D01*
X0230500Y0094298D01*
X0230444Y0094326D01*
X0230390Y0094357D01*
X0230338Y0094391D01*
X0230289Y0094429D01*
X0230241Y0094470D01*
X0230197Y0094514D01*
X0230155Y0094560D01*
X0230117Y0094610D01*
X0230081Y0094661D01*
X0230049Y0094715D01*
X0230021Y0094770D01*
X0229995Y0094827D01*
X0229974Y0094886D01*
X0229957Y0094946D01*
X0229943Y0095007D01*
X0229933Y0095068D01*
X0229927Y0095131D01*
X0229925Y0095193D01*
X0227608Y0095193D02*
X0227610Y0095255D01*
X0227616Y0095318D01*
X0227626Y0095379D01*
X0227640Y0095440D01*
X0227657Y0095500D01*
X0227678Y0095559D01*
X0227704Y0095616D01*
X0227732Y0095671D01*
X0227764Y0095725D01*
X0227800Y0095776D01*
X0227838Y0095826D01*
X0227880Y0095872D01*
X0227924Y0095916D01*
X0227972Y0095957D01*
X0228021Y0095995D01*
X0228073Y0096029D01*
X0228127Y0096060D01*
X0228183Y0096088D01*
X0228241Y0096112D01*
X0228300Y0096133D01*
X0228360Y0096149D01*
X0228421Y0096162D01*
X0228483Y0096171D01*
X0228545Y0096176D01*
X0228608Y0096177D01*
X0228670Y0096174D01*
X0228732Y0096167D01*
X0228794Y0096156D01*
X0228854Y0096141D01*
X0228914Y0096123D01*
X0228972Y0096101D01*
X0229029Y0096075D01*
X0229084Y0096045D01*
X0229137Y0096012D01*
X0229188Y0095976D01*
X0229236Y0095937D01*
X0229282Y0095894D01*
X0229325Y0095849D01*
X0229365Y0095801D01*
X0229402Y0095751D01*
X0229436Y0095698D01*
X0229467Y0095644D01*
X0229493Y0095588D01*
X0229517Y0095530D01*
X0229536Y0095470D01*
X0229552Y0095410D01*
X0229564Y0095348D01*
X0229572Y0095287D01*
X0229576Y0095224D01*
X0229576Y0095162D01*
X0229572Y0095099D01*
X0229564Y0095038D01*
X0229552Y0094976D01*
X0229536Y0094916D01*
X0229517Y0094856D01*
X0229493Y0094798D01*
X0229467Y0094742D01*
X0229436Y0094688D01*
X0229402Y0094635D01*
X0229365Y0094585D01*
X0229325Y0094537D01*
X0229282Y0094492D01*
X0229236Y0094449D01*
X0229188Y0094410D01*
X0229137Y0094374D01*
X0229084Y0094341D01*
X0229029Y0094311D01*
X0228972Y0094285D01*
X0228914Y0094263D01*
X0228854Y0094245D01*
X0228794Y0094230D01*
X0228732Y0094219D01*
X0228670Y0094212D01*
X0228608Y0094209D01*
X0228545Y0094210D01*
X0228483Y0094215D01*
X0228421Y0094224D01*
X0228360Y0094237D01*
X0228300Y0094253D01*
X0228241Y0094274D01*
X0228183Y0094298D01*
X0228127Y0094326D01*
X0228073Y0094357D01*
X0228021Y0094391D01*
X0227972Y0094429D01*
X0227924Y0094470D01*
X0227880Y0094514D01*
X0227838Y0094560D01*
X0227800Y0094610D01*
X0227764Y0094661D01*
X0227732Y0094715D01*
X0227704Y0094770D01*
X0227678Y0094827D01*
X0227657Y0094886D01*
X0227640Y0094946D01*
X0227626Y0095007D01*
X0227616Y0095068D01*
X0227610Y0095131D01*
X0227608Y0095193D01*
X0225357Y0095193D02*
X0225359Y0095255D01*
X0225365Y0095318D01*
X0225375Y0095379D01*
X0225389Y0095440D01*
X0225406Y0095500D01*
X0225427Y0095559D01*
X0225453Y0095616D01*
X0225481Y0095671D01*
X0225513Y0095725D01*
X0225549Y0095776D01*
X0225587Y0095826D01*
X0225629Y0095872D01*
X0225673Y0095916D01*
X0225721Y0095957D01*
X0225770Y0095995D01*
X0225822Y0096029D01*
X0225876Y0096060D01*
X0225932Y0096088D01*
X0225990Y0096112D01*
X0226049Y0096133D01*
X0226109Y0096149D01*
X0226170Y0096162D01*
X0226232Y0096171D01*
X0226294Y0096176D01*
X0226357Y0096177D01*
X0226419Y0096174D01*
X0226481Y0096167D01*
X0226543Y0096156D01*
X0226603Y0096141D01*
X0226663Y0096123D01*
X0226721Y0096101D01*
X0226778Y0096075D01*
X0226833Y0096045D01*
X0226886Y0096012D01*
X0226937Y0095976D01*
X0226985Y0095937D01*
X0227031Y0095894D01*
X0227074Y0095849D01*
X0227114Y0095801D01*
X0227151Y0095751D01*
X0227185Y0095698D01*
X0227216Y0095644D01*
X0227242Y0095588D01*
X0227266Y0095530D01*
X0227285Y0095470D01*
X0227301Y0095410D01*
X0227313Y0095348D01*
X0227321Y0095287D01*
X0227325Y0095224D01*
X0227325Y0095162D01*
X0227321Y0095099D01*
X0227313Y0095038D01*
X0227301Y0094976D01*
X0227285Y0094916D01*
X0227266Y0094856D01*
X0227242Y0094798D01*
X0227216Y0094742D01*
X0227185Y0094688D01*
X0227151Y0094635D01*
X0227114Y0094585D01*
X0227074Y0094537D01*
X0227031Y0094492D01*
X0226985Y0094449D01*
X0226937Y0094410D01*
X0226886Y0094374D01*
X0226833Y0094341D01*
X0226778Y0094311D01*
X0226721Y0094285D01*
X0226663Y0094263D01*
X0226603Y0094245D01*
X0226543Y0094230D01*
X0226481Y0094219D01*
X0226419Y0094212D01*
X0226357Y0094209D01*
X0226294Y0094210D01*
X0226232Y0094215D01*
X0226170Y0094224D01*
X0226109Y0094237D01*
X0226049Y0094253D01*
X0225990Y0094274D01*
X0225932Y0094298D01*
X0225876Y0094326D01*
X0225822Y0094357D01*
X0225770Y0094391D01*
X0225721Y0094429D01*
X0225673Y0094470D01*
X0225629Y0094514D01*
X0225587Y0094560D01*
X0225549Y0094610D01*
X0225513Y0094661D01*
X0225481Y0094715D01*
X0225453Y0094770D01*
X0225427Y0094827D01*
X0225406Y0094886D01*
X0225389Y0094946D01*
X0225375Y0095007D01*
X0225365Y0095068D01*
X0225359Y0095131D01*
X0225357Y0095193D01*
X0223041Y0095193D02*
X0223043Y0095255D01*
X0223049Y0095318D01*
X0223059Y0095379D01*
X0223073Y0095440D01*
X0223090Y0095500D01*
X0223111Y0095559D01*
X0223137Y0095616D01*
X0223165Y0095671D01*
X0223197Y0095725D01*
X0223233Y0095776D01*
X0223271Y0095826D01*
X0223313Y0095872D01*
X0223357Y0095916D01*
X0223405Y0095957D01*
X0223454Y0095995D01*
X0223506Y0096029D01*
X0223560Y0096060D01*
X0223616Y0096088D01*
X0223674Y0096112D01*
X0223733Y0096133D01*
X0223793Y0096149D01*
X0223854Y0096162D01*
X0223916Y0096171D01*
X0223978Y0096176D01*
X0224041Y0096177D01*
X0224103Y0096174D01*
X0224165Y0096167D01*
X0224227Y0096156D01*
X0224287Y0096141D01*
X0224347Y0096123D01*
X0224405Y0096101D01*
X0224462Y0096075D01*
X0224517Y0096045D01*
X0224570Y0096012D01*
X0224621Y0095976D01*
X0224669Y0095937D01*
X0224715Y0095894D01*
X0224758Y0095849D01*
X0224798Y0095801D01*
X0224835Y0095751D01*
X0224869Y0095698D01*
X0224900Y0095644D01*
X0224926Y0095588D01*
X0224950Y0095530D01*
X0224969Y0095470D01*
X0224985Y0095410D01*
X0224997Y0095348D01*
X0225005Y0095287D01*
X0225009Y0095224D01*
X0225009Y0095162D01*
X0225005Y0095099D01*
X0224997Y0095038D01*
X0224985Y0094976D01*
X0224969Y0094916D01*
X0224950Y0094856D01*
X0224926Y0094798D01*
X0224900Y0094742D01*
X0224869Y0094688D01*
X0224835Y0094635D01*
X0224798Y0094585D01*
X0224758Y0094537D01*
X0224715Y0094492D01*
X0224669Y0094449D01*
X0224621Y0094410D01*
X0224570Y0094374D01*
X0224517Y0094341D01*
X0224462Y0094311D01*
X0224405Y0094285D01*
X0224347Y0094263D01*
X0224287Y0094245D01*
X0224227Y0094230D01*
X0224165Y0094219D01*
X0224103Y0094212D01*
X0224041Y0094209D01*
X0223978Y0094210D01*
X0223916Y0094215D01*
X0223854Y0094224D01*
X0223793Y0094237D01*
X0223733Y0094253D01*
X0223674Y0094274D01*
X0223616Y0094298D01*
X0223560Y0094326D01*
X0223506Y0094357D01*
X0223454Y0094391D01*
X0223405Y0094429D01*
X0223357Y0094470D01*
X0223313Y0094514D01*
X0223271Y0094560D01*
X0223233Y0094610D01*
X0223197Y0094661D01*
X0223165Y0094715D01*
X0223137Y0094770D01*
X0223111Y0094827D01*
X0223090Y0094886D01*
X0223073Y0094946D01*
X0223059Y0095007D01*
X0223049Y0095068D01*
X0223043Y0095131D01*
X0223041Y0095193D01*
X0220815Y0095197D02*
X0220817Y0095259D01*
X0220823Y0095322D01*
X0220833Y0095383D01*
X0220847Y0095444D01*
X0220864Y0095504D01*
X0220885Y0095563D01*
X0220911Y0095620D01*
X0220939Y0095675D01*
X0220971Y0095729D01*
X0221007Y0095780D01*
X0221045Y0095830D01*
X0221087Y0095876D01*
X0221131Y0095920D01*
X0221179Y0095961D01*
X0221228Y0095999D01*
X0221280Y0096033D01*
X0221334Y0096064D01*
X0221390Y0096092D01*
X0221448Y0096116D01*
X0221507Y0096137D01*
X0221567Y0096153D01*
X0221628Y0096166D01*
X0221690Y0096175D01*
X0221752Y0096180D01*
X0221815Y0096181D01*
X0221877Y0096178D01*
X0221939Y0096171D01*
X0222001Y0096160D01*
X0222061Y0096145D01*
X0222121Y0096127D01*
X0222179Y0096105D01*
X0222236Y0096079D01*
X0222291Y0096049D01*
X0222344Y0096016D01*
X0222395Y0095980D01*
X0222443Y0095941D01*
X0222489Y0095898D01*
X0222532Y0095853D01*
X0222572Y0095805D01*
X0222609Y0095755D01*
X0222643Y0095702D01*
X0222674Y0095648D01*
X0222700Y0095592D01*
X0222724Y0095534D01*
X0222743Y0095474D01*
X0222759Y0095414D01*
X0222771Y0095352D01*
X0222779Y0095291D01*
X0222783Y0095228D01*
X0222783Y0095166D01*
X0222779Y0095103D01*
X0222771Y0095042D01*
X0222759Y0094980D01*
X0222743Y0094920D01*
X0222724Y0094860D01*
X0222700Y0094802D01*
X0222674Y0094746D01*
X0222643Y0094692D01*
X0222609Y0094639D01*
X0222572Y0094589D01*
X0222532Y0094541D01*
X0222489Y0094496D01*
X0222443Y0094453D01*
X0222395Y0094414D01*
X0222344Y0094378D01*
X0222291Y0094345D01*
X0222236Y0094315D01*
X0222179Y0094289D01*
X0222121Y0094267D01*
X0222061Y0094249D01*
X0222001Y0094234D01*
X0221939Y0094223D01*
X0221877Y0094216D01*
X0221815Y0094213D01*
X0221752Y0094214D01*
X0221690Y0094219D01*
X0221628Y0094228D01*
X0221567Y0094241D01*
X0221507Y0094257D01*
X0221448Y0094278D01*
X0221390Y0094302D01*
X0221334Y0094330D01*
X0221280Y0094361D01*
X0221228Y0094395D01*
X0221179Y0094433D01*
X0221131Y0094474D01*
X0221087Y0094518D01*
X0221045Y0094564D01*
X0221007Y0094614D01*
X0220971Y0094665D01*
X0220939Y0094719D01*
X0220911Y0094774D01*
X0220885Y0094831D01*
X0220864Y0094890D01*
X0220847Y0094950D01*
X0220833Y0095011D01*
X0220823Y0095072D01*
X0220817Y0095135D01*
X0220815Y0095197D01*
X0218498Y0095197D02*
X0218500Y0095259D01*
X0218506Y0095322D01*
X0218516Y0095383D01*
X0218530Y0095444D01*
X0218547Y0095504D01*
X0218568Y0095563D01*
X0218594Y0095620D01*
X0218622Y0095675D01*
X0218654Y0095729D01*
X0218690Y0095780D01*
X0218728Y0095830D01*
X0218770Y0095876D01*
X0218814Y0095920D01*
X0218862Y0095961D01*
X0218911Y0095999D01*
X0218963Y0096033D01*
X0219017Y0096064D01*
X0219073Y0096092D01*
X0219131Y0096116D01*
X0219190Y0096137D01*
X0219250Y0096153D01*
X0219311Y0096166D01*
X0219373Y0096175D01*
X0219435Y0096180D01*
X0219498Y0096181D01*
X0219560Y0096178D01*
X0219622Y0096171D01*
X0219684Y0096160D01*
X0219744Y0096145D01*
X0219804Y0096127D01*
X0219862Y0096105D01*
X0219919Y0096079D01*
X0219974Y0096049D01*
X0220027Y0096016D01*
X0220078Y0095980D01*
X0220126Y0095941D01*
X0220172Y0095898D01*
X0220215Y0095853D01*
X0220255Y0095805D01*
X0220292Y0095755D01*
X0220326Y0095702D01*
X0220357Y0095648D01*
X0220383Y0095592D01*
X0220407Y0095534D01*
X0220426Y0095474D01*
X0220442Y0095414D01*
X0220454Y0095352D01*
X0220462Y0095291D01*
X0220466Y0095228D01*
X0220466Y0095166D01*
X0220462Y0095103D01*
X0220454Y0095042D01*
X0220442Y0094980D01*
X0220426Y0094920D01*
X0220407Y0094860D01*
X0220383Y0094802D01*
X0220357Y0094746D01*
X0220326Y0094692D01*
X0220292Y0094639D01*
X0220255Y0094589D01*
X0220215Y0094541D01*
X0220172Y0094496D01*
X0220126Y0094453D01*
X0220078Y0094414D01*
X0220027Y0094378D01*
X0219974Y0094345D01*
X0219919Y0094315D01*
X0219862Y0094289D01*
X0219804Y0094267D01*
X0219744Y0094249D01*
X0219684Y0094234D01*
X0219622Y0094223D01*
X0219560Y0094216D01*
X0219498Y0094213D01*
X0219435Y0094214D01*
X0219373Y0094219D01*
X0219311Y0094228D01*
X0219250Y0094241D01*
X0219190Y0094257D01*
X0219131Y0094278D01*
X0219073Y0094302D01*
X0219017Y0094330D01*
X0218963Y0094361D01*
X0218911Y0094395D01*
X0218862Y0094433D01*
X0218814Y0094474D01*
X0218770Y0094518D01*
X0218728Y0094564D01*
X0218690Y0094614D01*
X0218654Y0094665D01*
X0218622Y0094719D01*
X0218594Y0094774D01*
X0218568Y0094831D01*
X0218547Y0094890D01*
X0218530Y0094950D01*
X0218516Y0095011D01*
X0218506Y0095072D01*
X0218500Y0095135D01*
X0218498Y0095197D01*
X0216247Y0095197D02*
X0216249Y0095259D01*
X0216255Y0095322D01*
X0216265Y0095383D01*
X0216279Y0095444D01*
X0216296Y0095504D01*
X0216317Y0095563D01*
X0216343Y0095620D01*
X0216371Y0095675D01*
X0216403Y0095729D01*
X0216439Y0095780D01*
X0216477Y0095830D01*
X0216519Y0095876D01*
X0216563Y0095920D01*
X0216611Y0095961D01*
X0216660Y0095999D01*
X0216712Y0096033D01*
X0216766Y0096064D01*
X0216822Y0096092D01*
X0216880Y0096116D01*
X0216939Y0096137D01*
X0216999Y0096153D01*
X0217060Y0096166D01*
X0217122Y0096175D01*
X0217184Y0096180D01*
X0217247Y0096181D01*
X0217309Y0096178D01*
X0217371Y0096171D01*
X0217433Y0096160D01*
X0217493Y0096145D01*
X0217553Y0096127D01*
X0217611Y0096105D01*
X0217668Y0096079D01*
X0217723Y0096049D01*
X0217776Y0096016D01*
X0217827Y0095980D01*
X0217875Y0095941D01*
X0217921Y0095898D01*
X0217964Y0095853D01*
X0218004Y0095805D01*
X0218041Y0095755D01*
X0218075Y0095702D01*
X0218106Y0095648D01*
X0218132Y0095592D01*
X0218156Y0095534D01*
X0218175Y0095474D01*
X0218191Y0095414D01*
X0218203Y0095352D01*
X0218211Y0095291D01*
X0218215Y0095228D01*
X0218215Y0095166D01*
X0218211Y0095103D01*
X0218203Y0095042D01*
X0218191Y0094980D01*
X0218175Y0094920D01*
X0218156Y0094860D01*
X0218132Y0094802D01*
X0218106Y0094746D01*
X0218075Y0094692D01*
X0218041Y0094639D01*
X0218004Y0094589D01*
X0217964Y0094541D01*
X0217921Y0094496D01*
X0217875Y0094453D01*
X0217827Y0094414D01*
X0217776Y0094378D01*
X0217723Y0094345D01*
X0217668Y0094315D01*
X0217611Y0094289D01*
X0217553Y0094267D01*
X0217493Y0094249D01*
X0217433Y0094234D01*
X0217371Y0094223D01*
X0217309Y0094216D01*
X0217247Y0094213D01*
X0217184Y0094214D01*
X0217122Y0094219D01*
X0217060Y0094228D01*
X0216999Y0094241D01*
X0216939Y0094257D01*
X0216880Y0094278D01*
X0216822Y0094302D01*
X0216766Y0094330D01*
X0216712Y0094361D01*
X0216660Y0094395D01*
X0216611Y0094433D01*
X0216563Y0094474D01*
X0216519Y0094518D01*
X0216477Y0094564D01*
X0216439Y0094614D01*
X0216403Y0094665D01*
X0216371Y0094719D01*
X0216343Y0094774D01*
X0216317Y0094831D01*
X0216296Y0094890D01*
X0216279Y0094950D01*
X0216265Y0095011D01*
X0216255Y0095072D01*
X0216249Y0095135D01*
X0216247Y0095197D01*
X0213930Y0095197D02*
X0213932Y0095259D01*
X0213938Y0095322D01*
X0213948Y0095383D01*
X0213962Y0095444D01*
X0213979Y0095504D01*
X0214000Y0095563D01*
X0214026Y0095620D01*
X0214054Y0095675D01*
X0214086Y0095729D01*
X0214122Y0095780D01*
X0214160Y0095830D01*
X0214202Y0095876D01*
X0214246Y0095920D01*
X0214294Y0095961D01*
X0214343Y0095999D01*
X0214395Y0096033D01*
X0214449Y0096064D01*
X0214505Y0096092D01*
X0214563Y0096116D01*
X0214622Y0096137D01*
X0214682Y0096153D01*
X0214743Y0096166D01*
X0214805Y0096175D01*
X0214867Y0096180D01*
X0214930Y0096181D01*
X0214992Y0096178D01*
X0215054Y0096171D01*
X0215116Y0096160D01*
X0215176Y0096145D01*
X0215236Y0096127D01*
X0215294Y0096105D01*
X0215351Y0096079D01*
X0215406Y0096049D01*
X0215459Y0096016D01*
X0215510Y0095980D01*
X0215558Y0095941D01*
X0215604Y0095898D01*
X0215647Y0095853D01*
X0215687Y0095805D01*
X0215724Y0095755D01*
X0215758Y0095702D01*
X0215789Y0095648D01*
X0215815Y0095592D01*
X0215839Y0095534D01*
X0215858Y0095474D01*
X0215874Y0095414D01*
X0215886Y0095352D01*
X0215894Y0095291D01*
X0215898Y0095228D01*
X0215898Y0095166D01*
X0215894Y0095103D01*
X0215886Y0095042D01*
X0215874Y0094980D01*
X0215858Y0094920D01*
X0215839Y0094860D01*
X0215815Y0094802D01*
X0215789Y0094746D01*
X0215758Y0094692D01*
X0215724Y0094639D01*
X0215687Y0094589D01*
X0215647Y0094541D01*
X0215604Y0094496D01*
X0215558Y0094453D01*
X0215510Y0094414D01*
X0215459Y0094378D01*
X0215406Y0094345D01*
X0215351Y0094315D01*
X0215294Y0094289D01*
X0215236Y0094267D01*
X0215176Y0094249D01*
X0215116Y0094234D01*
X0215054Y0094223D01*
X0214992Y0094216D01*
X0214930Y0094213D01*
X0214867Y0094214D01*
X0214805Y0094219D01*
X0214743Y0094228D01*
X0214682Y0094241D01*
X0214622Y0094257D01*
X0214563Y0094278D01*
X0214505Y0094302D01*
X0214449Y0094330D01*
X0214395Y0094361D01*
X0214343Y0094395D01*
X0214294Y0094433D01*
X0214246Y0094474D01*
X0214202Y0094518D01*
X0214160Y0094564D01*
X0214122Y0094614D01*
X0214086Y0094665D01*
X0214054Y0094719D01*
X0214026Y0094774D01*
X0214000Y0094831D01*
X0213979Y0094890D01*
X0213962Y0094950D01*
X0213948Y0095011D01*
X0213938Y0095072D01*
X0213932Y0095135D01*
X0213930Y0095197D01*
X0211654Y0095197D02*
X0211656Y0095259D01*
X0211662Y0095322D01*
X0211672Y0095383D01*
X0211686Y0095444D01*
X0211703Y0095504D01*
X0211724Y0095563D01*
X0211750Y0095620D01*
X0211778Y0095675D01*
X0211810Y0095729D01*
X0211846Y0095780D01*
X0211884Y0095830D01*
X0211926Y0095876D01*
X0211970Y0095920D01*
X0212018Y0095961D01*
X0212067Y0095999D01*
X0212119Y0096033D01*
X0212173Y0096064D01*
X0212229Y0096092D01*
X0212287Y0096116D01*
X0212346Y0096137D01*
X0212406Y0096153D01*
X0212467Y0096166D01*
X0212529Y0096175D01*
X0212591Y0096180D01*
X0212654Y0096181D01*
X0212716Y0096178D01*
X0212778Y0096171D01*
X0212840Y0096160D01*
X0212900Y0096145D01*
X0212960Y0096127D01*
X0213018Y0096105D01*
X0213075Y0096079D01*
X0213130Y0096049D01*
X0213183Y0096016D01*
X0213234Y0095980D01*
X0213282Y0095941D01*
X0213328Y0095898D01*
X0213371Y0095853D01*
X0213411Y0095805D01*
X0213448Y0095755D01*
X0213482Y0095702D01*
X0213513Y0095648D01*
X0213539Y0095592D01*
X0213563Y0095534D01*
X0213582Y0095474D01*
X0213598Y0095414D01*
X0213610Y0095352D01*
X0213618Y0095291D01*
X0213622Y0095228D01*
X0213622Y0095166D01*
X0213618Y0095103D01*
X0213610Y0095042D01*
X0213598Y0094980D01*
X0213582Y0094920D01*
X0213563Y0094860D01*
X0213539Y0094802D01*
X0213513Y0094746D01*
X0213482Y0094692D01*
X0213448Y0094639D01*
X0213411Y0094589D01*
X0213371Y0094541D01*
X0213328Y0094496D01*
X0213282Y0094453D01*
X0213234Y0094414D01*
X0213183Y0094378D01*
X0213130Y0094345D01*
X0213075Y0094315D01*
X0213018Y0094289D01*
X0212960Y0094267D01*
X0212900Y0094249D01*
X0212840Y0094234D01*
X0212778Y0094223D01*
X0212716Y0094216D01*
X0212654Y0094213D01*
X0212591Y0094214D01*
X0212529Y0094219D01*
X0212467Y0094228D01*
X0212406Y0094241D01*
X0212346Y0094257D01*
X0212287Y0094278D01*
X0212229Y0094302D01*
X0212173Y0094330D01*
X0212119Y0094361D01*
X0212067Y0094395D01*
X0212018Y0094433D01*
X0211970Y0094474D01*
X0211926Y0094518D01*
X0211884Y0094564D01*
X0211846Y0094614D01*
X0211810Y0094665D01*
X0211778Y0094719D01*
X0211750Y0094774D01*
X0211724Y0094831D01*
X0211703Y0094890D01*
X0211686Y0094950D01*
X0211672Y0095011D01*
X0211662Y0095072D01*
X0211656Y0095135D01*
X0211654Y0095197D01*
X0209337Y0095197D02*
X0209339Y0095259D01*
X0209345Y0095322D01*
X0209355Y0095383D01*
X0209369Y0095444D01*
X0209386Y0095504D01*
X0209407Y0095563D01*
X0209433Y0095620D01*
X0209461Y0095675D01*
X0209493Y0095729D01*
X0209529Y0095780D01*
X0209567Y0095830D01*
X0209609Y0095876D01*
X0209653Y0095920D01*
X0209701Y0095961D01*
X0209750Y0095999D01*
X0209802Y0096033D01*
X0209856Y0096064D01*
X0209912Y0096092D01*
X0209970Y0096116D01*
X0210029Y0096137D01*
X0210089Y0096153D01*
X0210150Y0096166D01*
X0210212Y0096175D01*
X0210274Y0096180D01*
X0210337Y0096181D01*
X0210399Y0096178D01*
X0210461Y0096171D01*
X0210523Y0096160D01*
X0210583Y0096145D01*
X0210643Y0096127D01*
X0210701Y0096105D01*
X0210758Y0096079D01*
X0210813Y0096049D01*
X0210866Y0096016D01*
X0210917Y0095980D01*
X0210965Y0095941D01*
X0211011Y0095898D01*
X0211054Y0095853D01*
X0211094Y0095805D01*
X0211131Y0095755D01*
X0211165Y0095702D01*
X0211196Y0095648D01*
X0211222Y0095592D01*
X0211246Y0095534D01*
X0211265Y0095474D01*
X0211281Y0095414D01*
X0211293Y0095352D01*
X0211301Y0095291D01*
X0211305Y0095228D01*
X0211305Y0095166D01*
X0211301Y0095103D01*
X0211293Y0095042D01*
X0211281Y0094980D01*
X0211265Y0094920D01*
X0211246Y0094860D01*
X0211222Y0094802D01*
X0211196Y0094746D01*
X0211165Y0094692D01*
X0211131Y0094639D01*
X0211094Y0094589D01*
X0211054Y0094541D01*
X0211011Y0094496D01*
X0210965Y0094453D01*
X0210917Y0094414D01*
X0210866Y0094378D01*
X0210813Y0094345D01*
X0210758Y0094315D01*
X0210701Y0094289D01*
X0210643Y0094267D01*
X0210583Y0094249D01*
X0210523Y0094234D01*
X0210461Y0094223D01*
X0210399Y0094216D01*
X0210337Y0094213D01*
X0210274Y0094214D01*
X0210212Y0094219D01*
X0210150Y0094228D01*
X0210089Y0094241D01*
X0210029Y0094257D01*
X0209970Y0094278D01*
X0209912Y0094302D01*
X0209856Y0094330D01*
X0209802Y0094361D01*
X0209750Y0094395D01*
X0209701Y0094433D01*
X0209653Y0094474D01*
X0209609Y0094518D01*
X0209567Y0094564D01*
X0209529Y0094614D01*
X0209493Y0094665D01*
X0209461Y0094719D01*
X0209433Y0094774D01*
X0209407Y0094831D01*
X0209386Y0094890D01*
X0209369Y0094950D01*
X0209355Y0095011D01*
X0209345Y0095072D01*
X0209339Y0095135D01*
X0209337Y0095197D01*
X0207086Y0095197D02*
X0207088Y0095259D01*
X0207094Y0095322D01*
X0207104Y0095383D01*
X0207118Y0095444D01*
X0207135Y0095504D01*
X0207156Y0095563D01*
X0207182Y0095620D01*
X0207210Y0095675D01*
X0207242Y0095729D01*
X0207278Y0095780D01*
X0207316Y0095830D01*
X0207358Y0095876D01*
X0207402Y0095920D01*
X0207450Y0095961D01*
X0207499Y0095999D01*
X0207551Y0096033D01*
X0207605Y0096064D01*
X0207661Y0096092D01*
X0207719Y0096116D01*
X0207778Y0096137D01*
X0207838Y0096153D01*
X0207899Y0096166D01*
X0207961Y0096175D01*
X0208023Y0096180D01*
X0208086Y0096181D01*
X0208148Y0096178D01*
X0208210Y0096171D01*
X0208272Y0096160D01*
X0208332Y0096145D01*
X0208392Y0096127D01*
X0208450Y0096105D01*
X0208507Y0096079D01*
X0208562Y0096049D01*
X0208615Y0096016D01*
X0208666Y0095980D01*
X0208714Y0095941D01*
X0208760Y0095898D01*
X0208803Y0095853D01*
X0208843Y0095805D01*
X0208880Y0095755D01*
X0208914Y0095702D01*
X0208945Y0095648D01*
X0208971Y0095592D01*
X0208995Y0095534D01*
X0209014Y0095474D01*
X0209030Y0095414D01*
X0209042Y0095352D01*
X0209050Y0095291D01*
X0209054Y0095228D01*
X0209054Y0095166D01*
X0209050Y0095103D01*
X0209042Y0095042D01*
X0209030Y0094980D01*
X0209014Y0094920D01*
X0208995Y0094860D01*
X0208971Y0094802D01*
X0208945Y0094746D01*
X0208914Y0094692D01*
X0208880Y0094639D01*
X0208843Y0094589D01*
X0208803Y0094541D01*
X0208760Y0094496D01*
X0208714Y0094453D01*
X0208666Y0094414D01*
X0208615Y0094378D01*
X0208562Y0094345D01*
X0208507Y0094315D01*
X0208450Y0094289D01*
X0208392Y0094267D01*
X0208332Y0094249D01*
X0208272Y0094234D01*
X0208210Y0094223D01*
X0208148Y0094216D01*
X0208086Y0094213D01*
X0208023Y0094214D01*
X0207961Y0094219D01*
X0207899Y0094228D01*
X0207838Y0094241D01*
X0207778Y0094257D01*
X0207719Y0094278D01*
X0207661Y0094302D01*
X0207605Y0094330D01*
X0207551Y0094361D01*
X0207499Y0094395D01*
X0207450Y0094433D01*
X0207402Y0094474D01*
X0207358Y0094518D01*
X0207316Y0094564D01*
X0207278Y0094614D01*
X0207242Y0094665D01*
X0207210Y0094719D01*
X0207182Y0094774D01*
X0207156Y0094831D01*
X0207135Y0094890D01*
X0207118Y0094950D01*
X0207104Y0095011D01*
X0207094Y0095072D01*
X0207088Y0095135D01*
X0207086Y0095197D01*
X0231916Y0075187D02*
X0231918Y0075305D01*
X0231924Y0075424D01*
X0231934Y0075542D01*
X0231948Y0075659D01*
X0231965Y0075776D01*
X0231987Y0075893D01*
X0232013Y0076008D01*
X0232042Y0076123D01*
X0232075Y0076237D01*
X0232112Y0076349D01*
X0232153Y0076460D01*
X0232197Y0076570D01*
X0232245Y0076678D01*
X0232297Y0076785D01*
X0232352Y0076890D01*
X0232411Y0076993D01*
X0232473Y0077093D01*
X0232538Y0077192D01*
X0232607Y0077289D01*
X0232678Y0077383D01*
X0232753Y0077474D01*
X0232831Y0077564D01*
X0232912Y0077650D01*
X0232996Y0077734D01*
X0233082Y0077815D01*
X0233172Y0077893D01*
X0233263Y0077968D01*
X0233357Y0078039D01*
X0233454Y0078108D01*
X0233553Y0078173D01*
X0233653Y0078235D01*
X0233756Y0078294D01*
X0233861Y0078349D01*
X0233968Y0078401D01*
X0234076Y0078449D01*
X0234186Y0078493D01*
X0234297Y0078534D01*
X0234409Y0078571D01*
X0234523Y0078604D01*
X0234638Y0078633D01*
X0234753Y0078659D01*
X0234870Y0078681D01*
X0234987Y0078698D01*
X0235104Y0078712D01*
X0235222Y0078722D01*
X0235341Y0078728D01*
X0235459Y0078730D01*
X0235577Y0078728D01*
X0235696Y0078722D01*
X0235814Y0078712D01*
X0235931Y0078698D01*
X0236048Y0078681D01*
X0236165Y0078659D01*
X0236280Y0078633D01*
X0236395Y0078604D01*
X0236509Y0078571D01*
X0236621Y0078534D01*
X0236732Y0078493D01*
X0236842Y0078449D01*
X0236950Y0078401D01*
X0237057Y0078349D01*
X0237162Y0078294D01*
X0237265Y0078235D01*
X0237365Y0078173D01*
X0237464Y0078108D01*
X0237561Y0078039D01*
X0237655Y0077968D01*
X0237746Y0077893D01*
X0237836Y0077815D01*
X0237922Y0077734D01*
X0238006Y0077650D01*
X0238087Y0077564D01*
X0238165Y0077474D01*
X0238240Y0077383D01*
X0238311Y0077289D01*
X0238380Y0077192D01*
X0238445Y0077093D01*
X0238507Y0076993D01*
X0238566Y0076890D01*
X0238621Y0076785D01*
X0238673Y0076678D01*
X0238721Y0076570D01*
X0238765Y0076460D01*
X0238806Y0076349D01*
X0238843Y0076237D01*
X0238876Y0076123D01*
X0238905Y0076008D01*
X0238931Y0075893D01*
X0238953Y0075776D01*
X0238970Y0075659D01*
X0238984Y0075542D01*
X0238994Y0075424D01*
X0239000Y0075305D01*
X0239002Y0075187D01*
X0239000Y0075069D01*
X0238994Y0074950D01*
X0238984Y0074832D01*
X0238970Y0074715D01*
X0238953Y0074598D01*
X0238931Y0074481D01*
X0238905Y0074366D01*
X0238876Y0074251D01*
X0238843Y0074137D01*
X0238806Y0074025D01*
X0238765Y0073914D01*
X0238721Y0073804D01*
X0238673Y0073696D01*
X0238621Y0073589D01*
X0238566Y0073484D01*
X0238507Y0073381D01*
X0238445Y0073281D01*
X0238380Y0073182D01*
X0238311Y0073085D01*
X0238240Y0072991D01*
X0238165Y0072900D01*
X0238087Y0072810D01*
X0238006Y0072724D01*
X0237922Y0072640D01*
X0237836Y0072559D01*
X0237746Y0072481D01*
X0237655Y0072406D01*
X0237561Y0072335D01*
X0237464Y0072266D01*
X0237365Y0072201D01*
X0237265Y0072139D01*
X0237162Y0072080D01*
X0237057Y0072025D01*
X0236950Y0071973D01*
X0236842Y0071925D01*
X0236732Y0071881D01*
X0236621Y0071840D01*
X0236509Y0071803D01*
X0236395Y0071770D01*
X0236280Y0071741D01*
X0236165Y0071715D01*
X0236048Y0071693D01*
X0235931Y0071676D01*
X0235814Y0071662D01*
X0235696Y0071652D01*
X0235577Y0071646D01*
X0235459Y0071644D01*
X0235341Y0071646D01*
X0235222Y0071652D01*
X0235104Y0071662D01*
X0234987Y0071676D01*
X0234870Y0071693D01*
X0234753Y0071715D01*
X0234638Y0071741D01*
X0234523Y0071770D01*
X0234409Y0071803D01*
X0234297Y0071840D01*
X0234186Y0071881D01*
X0234076Y0071925D01*
X0233968Y0071973D01*
X0233861Y0072025D01*
X0233756Y0072080D01*
X0233653Y0072139D01*
X0233553Y0072201D01*
X0233454Y0072266D01*
X0233357Y0072335D01*
X0233263Y0072406D01*
X0233172Y0072481D01*
X0233082Y0072559D01*
X0232996Y0072640D01*
X0232912Y0072724D01*
X0232831Y0072810D01*
X0232753Y0072900D01*
X0232678Y0072991D01*
X0232607Y0073085D01*
X0232538Y0073182D01*
X0232473Y0073281D01*
X0232411Y0073381D01*
X0232352Y0073484D01*
X0232297Y0073589D01*
X0232245Y0073696D01*
X0232197Y0073804D01*
X0232153Y0073914D01*
X0232112Y0074025D01*
X0232075Y0074137D01*
X0232042Y0074251D01*
X0232013Y0074366D01*
X0231987Y0074481D01*
X0231965Y0074598D01*
X0231948Y0074715D01*
X0231934Y0074832D01*
X0231924Y0074950D01*
X0231918Y0075069D01*
X0231916Y0075187D01*
X0290381Y0119478D02*
X0290383Y0119596D01*
X0290389Y0119715D01*
X0290399Y0119833D01*
X0290413Y0119950D01*
X0290430Y0120067D01*
X0290452Y0120184D01*
X0290478Y0120299D01*
X0290507Y0120414D01*
X0290540Y0120528D01*
X0290577Y0120640D01*
X0290618Y0120751D01*
X0290662Y0120861D01*
X0290710Y0120969D01*
X0290762Y0121076D01*
X0290817Y0121181D01*
X0290876Y0121284D01*
X0290938Y0121384D01*
X0291003Y0121483D01*
X0291072Y0121580D01*
X0291143Y0121674D01*
X0291218Y0121765D01*
X0291296Y0121855D01*
X0291377Y0121941D01*
X0291461Y0122025D01*
X0291547Y0122106D01*
X0291637Y0122184D01*
X0291728Y0122259D01*
X0291822Y0122330D01*
X0291919Y0122399D01*
X0292018Y0122464D01*
X0292118Y0122526D01*
X0292221Y0122585D01*
X0292326Y0122640D01*
X0292433Y0122692D01*
X0292541Y0122740D01*
X0292651Y0122784D01*
X0292762Y0122825D01*
X0292874Y0122862D01*
X0292988Y0122895D01*
X0293103Y0122924D01*
X0293218Y0122950D01*
X0293335Y0122972D01*
X0293452Y0122989D01*
X0293569Y0123003D01*
X0293687Y0123013D01*
X0293806Y0123019D01*
X0293924Y0123021D01*
X0294042Y0123019D01*
X0294161Y0123013D01*
X0294279Y0123003D01*
X0294396Y0122989D01*
X0294513Y0122972D01*
X0294630Y0122950D01*
X0294745Y0122924D01*
X0294860Y0122895D01*
X0294974Y0122862D01*
X0295086Y0122825D01*
X0295197Y0122784D01*
X0295307Y0122740D01*
X0295415Y0122692D01*
X0295522Y0122640D01*
X0295627Y0122585D01*
X0295730Y0122526D01*
X0295830Y0122464D01*
X0295929Y0122399D01*
X0296026Y0122330D01*
X0296120Y0122259D01*
X0296211Y0122184D01*
X0296301Y0122106D01*
X0296387Y0122025D01*
X0296471Y0121941D01*
X0296552Y0121855D01*
X0296630Y0121765D01*
X0296705Y0121674D01*
X0296776Y0121580D01*
X0296845Y0121483D01*
X0296910Y0121384D01*
X0296972Y0121284D01*
X0297031Y0121181D01*
X0297086Y0121076D01*
X0297138Y0120969D01*
X0297186Y0120861D01*
X0297230Y0120751D01*
X0297271Y0120640D01*
X0297308Y0120528D01*
X0297341Y0120414D01*
X0297370Y0120299D01*
X0297396Y0120184D01*
X0297418Y0120067D01*
X0297435Y0119950D01*
X0297449Y0119833D01*
X0297459Y0119715D01*
X0297465Y0119596D01*
X0297467Y0119478D01*
X0297465Y0119360D01*
X0297459Y0119241D01*
X0297449Y0119123D01*
X0297435Y0119006D01*
X0297418Y0118889D01*
X0297396Y0118772D01*
X0297370Y0118657D01*
X0297341Y0118542D01*
X0297308Y0118428D01*
X0297271Y0118316D01*
X0297230Y0118205D01*
X0297186Y0118095D01*
X0297138Y0117987D01*
X0297086Y0117880D01*
X0297031Y0117775D01*
X0296972Y0117672D01*
X0296910Y0117572D01*
X0296845Y0117473D01*
X0296776Y0117376D01*
X0296705Y0117282D01*
X0296630Y0117191D01*
X0296552Y0117101D01*
X0296471Y0117015D01*
X0296387Y0116931D01*
X0296301Y0116850D01*
X0296211Y0116772D01*
X0296120Y0116697D01*
X0296026Y0116626D01*
X0295929Y0116557D01*
X0295830Y0116492D01*
X0295730Y0116430D01*
X0295627Y0116371D01*
X0295522Y0116316D01*
X0295415Y0116264D01*
X0295307Y0116216D01*
X0295197Y0116172D01*
X0295086Y0116131D01*
X0294974Y0116094D01*
X0294860Y0116061D01*
X0294745Y0116032D01*
X0294630Y0116006D01*
X0294513Y0115984D01*
X0294396Y0115967D01*
X0294279Y0115953D01*
X0294161Y0115943D01*
X0294042Y0115937D01*
X0293924Y0115935D01*
X0293806Y0115937D01*
X0293687Y0115943D01*
X0293569Y0115953D01*
X0293452Y0115967D01*
X0293335Y0115984D01*
X0293218Y0116006D01*
X0293103Y0116032D01*
X0292988Y0116061D01*
X0292874Y0116094D01*
X0292762Y0116131D01*
X0292651Y0116172D01*
X0292541Y0116216D01*
X0292433Y0116264D01*
X0292326Y0116316D01*
X0292221Y0116371D01*
X0292118Y0116430D01*
X0292018Y0116492D01*
X0291919Y0116557D01*
X0291822Y0116626D01*
X0291728Y0116697D01*
X0291637Y0116772D01*
X0291547Y0116850D01*
X0291461Y0116931D01*
X0291377Y0117015D01*
X0291296Y0117101D01*
X0291218Y0117191D01*
X0291143Y0117282D01*
X0291072Y0117376D01*
X0291003Y0117473D01*
X0290938Y0117572D01*
X0290876Y0117672D01*
X0290817Y0117775D01*
X0290762Y0117880D01*
X0290710Y0117987D01*
X0290662Y0118095D01*
X0290618Y0118205D01*
X0290577Y0118316D01*
X0290540Y0118428D01*
X0290507Y0118542D01*
X0290478Y0118657D01*
X0290452Y0118772D01*
X0290430Y0118889D01*
X0290413Y0119006D01*
X0290399Y0119123D01*
X0290389Y0119241D01*
X0290383Y0119360D01*
X0290381Y0119478D01*
X0308979Y0183222D02*
X0308981Y0183301D01*
X0308987Y0183380D01*
X0308997Y0183459D01*
X0309011Y0183537D01*
X0309028Y0183614D01*
X0309050Y0183690D01*
X0309075Y0183765D01*
X0309105Y0183838D01*
X0309137Y0183910D01*
X0309174Y0183981D01*
X0309214Y0184049D01*
X0309257Y0184115D01*
X0309303Y0184179D01*
X0309353Y0184241D01*
X0309406Y0184300D01*
X0309461Y0184356D01*
X0309520Y0184410D01*
X0309581Y0184460D01*
X0309644Y0184508D01*
X0309710Y0184552D01*
X0309778Y0184593D01*
X0309848Y0184630D01*
X0309919Y0184664D01*
X0309993Y0184694D01*
X0310067Y0184720D01*
X0310143Y0184742D01*
X0310220Y0184761D01*
X0310298Y0184776D01*
X0310376Y0184787D01*
X0310455Y0184794D01*
X0310534Y0184797D01*
X0310613Y0184796D01*
X0310692Y0184791D01*
X0310771Y0184782D01*
X0310849Y0184769D01*
X0310926Y0184752D01*
X0311003Y0184732D01*
X0311078Y0184707D01*
X0311152Y0184679D01*
X0311225Y0184647D01*
X0311295Y0184612D01*
X0311364Y0184573D01*
X0311431Y0184530D01*
X0311496Y0184484D01*
X0311558Y0184436D01*
X0311618Y0184384D01*
X0311675Y0184329D01*
X0311729Y0184271D01*
X0311780Y0184211D01*
X0311828Y0184148D01*
X0311873Y0184083D01*
X0311915Y0184015D01*
X0311953Y0183946D01*
X0311987Y0183875D01*
X0312018Y0183802D01*
X0312046Y0183727D01*
X0312069Y0183652D01*
X0312089Y0183575D01*
X0312105Y0183498D01*
X0312117Y0183419D01*
X0312125Y0183341D01*
X0312129Y0183262D01*
X0312129Y0183182D01*
X0312125Y0183103D01*
X0312117Y0183025D01*
X0312105Y0182946D01*
X0312089Y0182869D01*
X0312069Y0182792D01*
X0312046Y0182717D01*
X0312018Y0182642D01*
X0311987Y0182569D01*
X0311953Y0182498D01*
X0311915Y0182429D01*
X0311873Y0182361D01*
X0311828Y0182296D01*
X0311780Y0182233D01*
X0311729Y0182173D01*
X0311675Y0182115D01*
X0311618Y0182060D01*
X0311558Y0182008D01*
X0311496Y0181960D01*
X0311431Y0181914D01*
X0311364Y0181871D01*
X0311295Y0181832D01*
X0311225Y0181797D01*
X0311152Y0181765D01*
X0311078Y0181737D01*
X0311003Y0181712D01*
X0310926Y0181692D01*
X0310849Y0181675D01*
X0310771Y0181662D01*
X0310692Y0181653D01*
X0310613Y0181648D01*
X0310534Y0181647D01*
X0310455Y0181650D01*
X0310376Y0181657D01*
X0310298Y0181668D01*
X0310220Y0181683D01*
X0310143Y0181702D01*
X0310067Y0181724D01*
X0309993Y0181750D01*
X0309919Y0181780D01*
X0309848Y0181814D01*
X0309778Y0181851D01*
X0309710Y0181892D01*
X0309644Y0181936D01*
X0309581Y0181984D01*
X0309520Y0182034D01*
X0309461Y0182088D01*
X0309406Y0182144D01*
X0309353Y0182203D01*
X0309303Y0182265D01*
X0309257Y0182329D01*
X0309214Y0182395D01*
X0309174Y0182463D01*
X0309137Y0182534D01*
X0309105Y0182606D01*
X0309075Y0182679D01*
X0309050Y0182754D01*
X0309028Y0182830D01*
X0309011Y0182907D01*
X0308997Y0182985D01*
X0308987Y0183064D01*
X0308981Y0183143D01*
X0308979Y0183222D01*
X0308992Y0191204D02*
X0308994Y0191283D01*
X0309000Y0191362D01*
X0309010Y0191441D01*
X0309024Y0191519D01*
X0309041Y0191596D01*
X0309063Y0191672D01*
X0309088Y0191747D01*
X0309118Y0191820D01*
X0309150Y0191892D01*
X0309187Y0191963D01*
X0309227Y0192031D01*
X0309270Y0192097D01*
X0309316Y0192161D01*
X0309366Y0192223D01*
X0309419Y0192282D01*
X0309474Y0192338D01*
X0309533Y0192392D01*
X0309594Y0192442D01*
X0309657Y0192490D01*
X0309723Y0192534D01*
X0309791Y0192575D01*
X0309861Y0192612D01*
X0309932Y0192646D01*
X0310006Y0192676D01*
X0310080Y0192702D01*
X0310156Y0192724D01*
X0310233Y0192743D01*
X0310311Y0192758D01*
X0310389Y0192769D01*
X0310468Y0192776D01*
X0310547Y0192779D01*
X0310626Y0192778D01*
X0310705Y0192773D01*
X0310784Y0192764D01*
X0310862Y0192751D01*
X0310939Y0192734D01*
X0311016Y0192714D01*
X0311091Y0192689D01*
X0311165Y0192661D01*
X0311238Y0192629D01*
X0311308Y0192594D01*
X0311377Y0192555D01*
X0311444Y0192512D01*
X0311509Y0192466D01*
X0311571Y0192418D01*
X0311631Y0192366D01*
X0311688Y0192311D01*
X0311742Y0192253D01*
X0311793Y0192193D01*
X0311841Y0192130D01*
X0311886Y0192065D01*
X0311928Y0191997D01*
X0311966Y0191928D01*
X0312000Y0191857D01*
X0312031Y0191784D01*
X0312059Y0191709D01*
X0312082Y0191634D01*
X0312102Y0191557D01*
X0312118Y0191480D01*
X0312130Y0191401D01*
X0312138Y0191323D01*
X0312142Y0191244D01*
X0312142Y0191164D01*
X0312138Y0191085D01*
X0312130Y0191007D01*
X0312118Y0190928D01*
X0312102Y0190851D01*
X0312082Y0190774D01*
X0312059Y0190699D01*
X0312031Y0190624D01*
X0312000Y0190551D01*
X0311966Y0190480D01*
X0311928Y0190411D01*
X0311886Y0190343D01*
X0311841Y0190278D01*
X0311793Y0190215D01*
X0311742Y0190155D01*
X0311688Y0190097D01*
X0311631Y0190042D01*
X0311571Y0189990D01*
X0311509Y0189942D01*
X0311444Y0189896D01*
X0311377Y0189853D01*
X0311308Y0189814D01*
X0311238Y0189779D01*
X0311165Y0189747D01*
X0311091Y0189719D01*
X0311016Y0189694D01*
X0310939Y0189674D01*
X0310862Y0189657D01*
X0310784Y0189644D01*
X0310705Y0189635D01*
X0310626Y0189630D01*
X0310547Y0189629D01*
X0310468Y0189632D01*
X0310389Y0189639D01*
X0310311Y0189650D01*
X0310233Y0189665D01*
X0310156Y0189684D01*
X0310080Y0189706D01*
X0310006Y0189732D01*
X0309932Y0189762D01*
X0309861Y0189796D01*
X0309791Y0189833D01*
X0309723Y0189874D01*
X0309657Y0189918D01*
X0309594Y0189966D01*
X0309533Y0190016D01*
X0309474Y0190070D01*
X0309419Y0190126D01*
X0309366Y0190185D01*
X0309316Y0190247D01*
X0309270Y0190311D01*
X0309227Y0190377D01*
X0309187Y0190445D01*
X0309150Y0190516D01*
X0309118Y0190588D01*
X0309088Y0190661D01*
X0309063Y0190736D01*
X0309041Y0190812D01*
X0309024Y0190889D01*
X0309010Y0190967D01*
X0309000Y0191046D01*
X0308994Y0191125D01*
X0308992Y0191204D01*
X0147456Y0189945D02*
X0147458Y0190024D01*
X0147464Y0190103D01*
X0147474Y0190182D01*
X0147488Y0190260D01*
X0147505Y0190337D01*
X0147527Y0190413D01*
X0147552Y0190488D01*
X0147582Y0190561D01*
X0147614Y0190633D01*
X0147651Y0190704D01*
X0147691Y0190772D01*
X0147734Y0190838D01*
X0147780Y0190902D01*
X0147830Y0190964D01*
X0147883Y0191023D01*
X0147938Y0191079D01*
X0147997Y0191133D01*
X0148058Y0191183D01*
X0148121Y0191231D01*
X0148187Y0191275D01*
X0148255Y0191316D01*
X0148325Y0191353D01*
X0148396Y0191387D01*
X0148470Y0191417D01*
X0148544Y0191443D01*
X0148620Y0191465D01*
X0148697Y0191484D01*
X0148775Y0191499D01*
X0148853Y0191510D01*
X0148932Y0191517D01*
X0149011Y0191520D01*
X0149090Y0191519D01*
X0149169Y0191514D01*
X0149248Y0191505D01*
X0149326Y0191492D01*
X0149403Y0191475D01*
X0149480Y0191455D01*
X0149555Y0191430D01*
X0149629Y0191402D01*
X0149702Y0191370D01*
X0149772Y0191335D01*
X0149841Y0191296D01*
X0149908Y0191253D01*
X0149973Y0191207D01*
X0150035Y0191159D01*
X0150095Y0191107D01*
X0150152Y0191052D01*
X0150206Y0190994D01*
X0150257Y0190934D01*
X0150305Y0190871D01*
X0150350Y0190806D01*
X0150392Y0190738D01*
X0150430Y0190669D01*
X0150464Y0190598D01*
X0150495Y0190525D01*
X0150523Y0190450D01*
X0150546Y0190375D01*
X0150566Y0190298D01*
X0150582Y0190221D01*
X0150594Y0190142D01*
X0150602Y0190064D01*
X0150606Y0189985D01*
X0150606Y0189905D01*
X0150602Y0189826D01*
X0150594Y0189748D01*
X0150582Y0189669D01*
X0150566Y0189592D01*
X0150546Y0189515D01*
X0150523Y0189440D01*
X0150495Y0189365D01*
X0150464Y0189292D01*
X0150430Y0189221D01*
X0150392Y0189152D01*
X0150350Y0189084D01*
X0150305Y0189019D01*
X0150257Y0188956D01*
X0150206Y0188896D01*
X0150152Y0188838D01*
X0150095Y0188783D01*
X0150035Y0188731D01*
X0149973Y0188683D01*
X0149908Y0188637D01*
X0149841Y0188594D01*
X0149772Y0188555D01*
X0149702Y0188520D01*
X0149629Y0188488D01*
X0149555Y0188460D01*
X0149480Y0188435D01*
X0149403Y0188415D01*
X0149326Y0188398D01*
X0149248Y0188385D01*
X0149169Y0188376D01*
X0149090Y0188371D01*
X0149011Y0188370D01*
X0148932Y0188373D01*
X0148853Y0188380D01*
X0148775Y0188391D01*
X0148697Y0188406D01*
X0148620Y0188425D01*
X0148544Y0188447D01*
X0148470Y0188473D01*
X0148396Y0188503D01*
X0148325Y0188537D01*
X0148255Y0188574D01*
X0148187Y0188615D01*
X0148121Y0188659D01*
X0148058Y0188707D01*
X0147997Y0188757D01*
X0147938Y0188811D01*
X0147883Y0188867D01*
X0147830Y0188926D01*
X0147780Y0188988D01*
X0147734Y0189052D01*
X0147691Y0189118D01*
X0147651Y0189186D01*
X0147614Y0189257D01*
X0147582Y0189329D01*
X0147552Y0189402D01*
X0147527Y0189477D01*
X0147505Y0189553D01*
X0147488Y0189630D01*
X0147474Y0189708D01*
X0147464Y0189787D01*
X0147458Y0189866D01*
X0147456Y0189945D01*
X0147456Y0182975D02*
X0147458Y0183054D01*
X0147464Y0183133D01*
X0147474Y0183212D01*
X0147488Y0183290D01*
X0147505Y0183367D01*
X0147527Y0183443D01*
X0147552Y0183518D01*
X0147582Y0183591D01*
X0147614Y0183663D01*
X0147651Y0183734D01*
X0147691Y0183802D01*
X0147734Y0183868D01*
X0147780Y0183932D01*
X0147830Y0183994D01*
X0147883Y0184053D01*
X0147938Y0184109D01*
X0147997Y0184163D01*
X0148058Y0184213D01*
X0148121Y0184261D01*
X0148187Y0184305D01*
X0148255Y0184346D01*
X0148325Y0184383D01*
X0148396Y0184417D01*
X0148470Y0184447D01*
X0148544Y0184473D01*
X0148620Y0184495D01*
X0148697Y0184514D01*
X0148775Y0184529D01*
X0148853Y0184540D01*
X0148932Y0184547D01*
X0149011Y0184550D01*
X0149090Y0184549D01*
X0149169Y0184544D01*
X0149248Y0184535D01*
X0149326Y0184522D01*
X0149403Y0184505D01*
X0149480Y0184485D01*
X0149555Y0184460D01*
X0149629Y0184432D01*
X0149702Y0184400D01*
X0149772Y0184365D01*
X0149841Y0184326D01*
X0149908Y0184283D01*
X0149973Y0184237D01*
X0150035Y0184189D01*
X0150095Y0184137D01*
X0150152Y0184082D01*
X0150206Y0184024D01*
X0150257Y0183964D01*
X0150305Y0183901D01*
X0150350Y0183836D01*
X0150392Y0183768D01*
X0150430Y0183699D01*
X0150464Y0183628D01*
X0150495Y0183555D01*
X0150523Y0183480D01*
X0150546Y0183405D01*
X0150566Y0183328D01*
X0150582Y0183251D01*
X0150594Y0183172D01*
X0150602Y0183094D01*
X0150606Y0183015D01*
X0150606Y0182935D01*
X0150602Y0182856D01*
X0150594Y0182778D01*
X0150582Y0182699D01*
X0150566Y0182622D01*
X0150546Y0182545D01*
X0150523Y0182470D01*
X0150495Y0182395D01*
X0150464Y0182322D01*
X0150430Y0182251D01*
X0150392Y0182182D01*
X0150350Y0182114D01*
X0150305Y0182049D01*
X0150257Y0181986D01*
X0150206Y0181926D01*
X0150152Y0181868D01*
X0150095Y0181813D01*
X0150035Y0181761D01*
X0149973Y0181713D01*
X0149908Y0181667D01*
X0149841Y0181624D01*
X0149772Y0181585D01*
X0149702Y0181550D01*
X0149629Y0181518D01*
X0149555Y0181490D01*
X0149480Y0181465D01*
X0149403Y0181445D01*
X0149326Y0181428D01*
X0149248Y0181415D01*
X0149169Y0181406D01*
X0149090Y0181401D01*
X0149011Y0181400D01*
X0148932Y0181403D01*
X0148853Y0181410D01*
X0148775Y0181421D01*
X0148697Y0181436D01*
X0148620Y0181455D01*
X0148544Y0181477D01*
X0148470Y0181503D01*
X0148396Y0181533D01*
X0148325Y0181567D01*
X0148255Y0181604D01*
X0148187Y0181645D01*
X0148121Y0181689D01*
X0148058Y0181737D01*
X0147997Y0181787D01*
X0147938Y0181841D01*
X0147883Y0181897D01*
X0147830Y0181956D01*
X0147780Y0182018D01*
X0147734Y0182082D01*
X0147691Y0182148D01*
X0147651Y0182216D01*
X0147614Y0182287D01*
X0147582Y0182359D01*
X0147552Y0182432D01*
X0147527Y0182507D01*
X0147505Y0182583D01*
X0147488Y0182660D01*
X0147474Y0182738D01*
X0147464Y0182817D01*
X0147458Y0182896D01*
X0147456Y0182975D01*
X0243529Y0020560D02*
X0243531Y0020639D01*
X0243537Y0020718D01*
X0243547Y0020797D01*
X0243561Y0020875D01*
X0243578Y0020952D01*
X0243600Y0021028D01*
X0243625Y0021103D01*
X0243655Y0021176D01*
X0243687Y0021248D01*
X0243724Y0021319D01*
X0243764Y0021387D01*
X0243807Y0021453D01*
X0243853Y0021517D01*
X0243903Y0021579D01*
X0243956Y0021638D01*
X0244011Y0021694D01*
X0244070Y0021748D01*
X0244131Y0021798D01*
X0244194Y0021846D01*
X0244260Y0021890D01*
X0244328Y0021931D01*
X0244398Y0021968D01*
X0244469Y0022002D01*
X0244543Y0022032D01*
X0244617Y0022058D01*
X0244693Y0022080D01*
X0244770Y0022099D01*
X0244848Y0022114D01*
X0244926Y0022125D01*
X0245005Y0022132D01*
X0245084Y0022135D01*
X0245163Y0022134D01*
X0245242Y0022129D01*
X0245321Y0022120D01*
X0245399Y0022107D01*
X0245476Y0022090D01*
X0245553Y0022070D01*
X0245628Y0022045D01*
X0245702Y0022017D01*
X0245775Y0021985D01*
X0245845Y0021950D01*
X0245914Y0021911D01*
X0245981Y0021868D01*
X0246046Y0021822D01*
X0246108Y0021774D01*
X0246168Y0021722D01*
X0246225Y0021667D01*
X0246279Y0021609D01*
X0246330Y0021549D01*
X0246378Y0021486D01*
X0246423Y0021421D01*
X0246465Y0021353D01*
X0246503Y0021284D01*
X0246537Y0021213D01*
X0246568Y0021140D01*
X0246596Y0021065D01*
X0246619Y0020990D01*
X0246639Y0020913D01*
X0246655Y0020836D01*
X0246667Y0020757D01*
X0246675Y0020679D01*
X0246679Y0020600D01*
X0246679Y0020520D01*
X0246675Y0020441D01*
X0246667Y0020363D01*
X0246655Y0020284D01*
X0246639Y0020207D01*
X0246619Y0020130D01*
X0246596Y0020055D01*
X0246568Y0019980D01*
X0246537Y0019907D01*
X0246503Y0019836D01*
X0246465Y0019767D01*
X0246423Y0019699D01*
X0246378Y0019634D01*
X0246330Y0019571D01*
X0246279Y0019511D01*
X0246225Y0019453D01*
X0246168Y0019398D01*
X0246108Y0019346D01*
X0246046Y0019298D01*
X0245981Y0019252D01*
X0245914Y0019209D01*
X0245845Y0019170D01*
X0245775Y0019135D01*
X0245702Y0019103D01*
X0245628Y0019075D01*
X0245553Y0019050D01*
X0245476Y0019030D01*
X0245399Y0019013D01*
X0245321Y0019000D01*
X0245242Y0018991D01*
X0245163Y0018986D01*
X0245084Y0018985D01*
X0245005Y0018988D01*
X0244926Y0018995D01*
X0244848Y0019006D01*
X0244770Y0019021D01*
X0244693Y0019040D01*
X0244617Y0019062D01*
X0244543Y0019088D01*
X0244469Y0019118D01*
X0244398Y0019152D01*
X0244328Y0019189D01*
X0244260Y0019230D01*
X0244194Y0019274D01*
X0244131Y0019322D01*
X0244070Y0019372D01*
X0244011Y0019426D01*
X0243956Y0019482D01*
X0243903Y0019541D01*
X0243853Y0019603D01*
X0243807Y0019667D01*
X0243764Y0019733D01*
X0243724Y0019801D01*
X0243687Y0019872D01*
X0243655Y0019944D01*
X0243625Y0020017D01*
X0243600Y0020092D01*
X0243578Y0020168D01*
X0243561Y0020245D01*
X0243547Y0020323D01*
X0243537Y0020402D01*
X0243531Y0020481D01*
X0243529Y0020560D01*
X0243529Y0011162D02*
X0243531Y0011241D01*
X0243537Y0011320D01*
X0243547Y0011399D01*
X0243561Y0011477D01*
X0243578Y0011554D01*
X0243600Y0011630D01*
X0243625Y0011705D01*
X0243655Y0011778D01*
X0243687Y0011850D01*
X0243724Y0011921D01*
X0243764Y0011989D01*
X0243807Y0012055D01*
X0243853Y0012119D01*
X0243903Y0012181D01*
X0243956Y0012240D01*
X0244011Y0012296D01*
X0244070Y0012350D01*
X0244131Y0012400D01*
X0244194Y0012448D01*
X0244260Y0012492D01*
X0244328Y0012533D01*
X0244398Y0012570D01*
X0244469Y0012604D01*
X0244543Y0012634D01*
X0244617Y0012660D01*
X0244693Y0012682D01*
X0244770Y0012701D01*
X0244848Y0012716D01*
X0244926Y0012727D01*
X0245005Y0012734D01*
X0245084Y0012737D01*
X0245163Y0012736D01*
X0245242Y0012731D01*
X0245321Y0012722D01*
X0245399Y0012709D01*
X0245476Y0012692D01*
X0245553Y0012672D01*
X0245628Y0012647D01*
X0245702Y0012619D01*
X0245775Y0012587D01*
X0245845Y0012552D01*
X0245914Y0012513D01*
X0245981Y0012470D01*
X0246046Y0012424D01*
X0246108Y0012376D01*
X0246168Y0012324D01*
X0246225Y0012269D01*
X0246279Y0012211D01*
X0246330Y0012151D01*
X0246378Y0012088D01*
X0246423Y0012023D01*
X0246465Y0011955D01*
X0246503Y0011886D01*
X0246537Y0011815D01*
X0246568Y0011742D01*
X0246596Y0011667D01*
X0246619Y0011592D01*
X0246639Y0011515D01*
X0246655Y0011438D01*
X0246667Y0011359D01*
X0246675Y0011281D01*
X0246679Y0011202D01*
X0246679Y0011122D01*
X0246675Y0011043D01*
X0246667Y0010965D01*
X0246655Y0010886D01*
X0246639Y0010809D01*
X0246619Y0010732D01*
X0246596Y0010657D01*
X0246568Y0010582D01*
X0246537Y0010509D01*
X0246503Y0010438D01*
X0246465Y0010369D01*
X0246423Y0010301D01*
X0246378Y0010236D01*
X0246330Y0010173D01*
X0246279Y0010113D01*
X0246225Y0010055D01*
X0246168Y0010000D01*
X0246108Y0009948D01*
X0246046Y0009900D01*
X0245981Y0009854D01*
X0245914Y0009811D01*
X0245845Y0009772D01*
X0245775Y0009737D01*
X0245702Y0009705D01*
X0245628Y0009677D01*
X0245553Y0009652D01*
X0245476Y0009632D01*
X0245399Y0009615D01*
X0245321Y0009602D01*
X0245242Y0009593D01*
X0245163Y0009588D01*
X0245084Y0009587D01*
X0245005Y0009590D01*
X0244926Y0009597D01*
X0244848Y0009608D01*
X0244770Y0009623D01*
X0244693Y0009642D01*
X0244617Y0009664D01*
X0244543Y0009690D01*
X0244469Y0009720D01*
X0244398Y0009754D01*
X0244328Y0009791D01*
X0244260Y0009832D01*
X0244194Y0009876D01*
X0244131Y0009924D01*
X0244070Y0009974D01*
X0244011Y0010028D01*
X0243956Y0010084D01*
X0243903Y0010143D01*
X0243853Y0010205D01*
X0243807Y0010269D01*
X0243764Y0010335D01*
X0243724Y0010403D01*
X0243687Y0010474D01*
X0243655Y0010546D01*
X0243625Y0010619D01*
X0243600Y0010694D01*
X0243578Y0010770D01*
X0243561Y0010847D01*
X0243547Y0010925D01*
X0243537Y0011004D01*
X0243531Y0011083D01*
X0243529Y0011162D01*
D12*
X0133733Y0093283D03*
X0127171Y0126779D03*
X0117381Y0126779D03*
M02*
