%
M48
M72
T01C0.01969
T02C0.03150
T03C0.04724
T04C0.07087
%
T01
X208070Y95197
X210321Y95197
X212638Y95197
X214914Y95197
X217231Y95197
X219482Y95197
X221799Y95197
X224025Y95193
X226341Y95193
X228592Y95193
X230909Y95193
X233186Y95193
X235503Y95193
X237754Y95193
X240071Y95193
X242485Y95172
X244802Y95172
X247053Y95172
X247059Y101002
X244808Y101002
X242491Y101023
X240076Y101023
X237759Y101023
X235508Y101023
X233191Y101023
X230915Y101023
X228598Y101023
X226347Y101023
X224030Y101023
X221804Y101027
X219488Y101027
X217237Y101027
X214920Y101027
X212643Y101027
X210326Y101027
X208075Y101027
T02
X149031Y189945
X149031Y182975
X93476Y10404
X93476Y19802
X310567Y191204
X310554Y183222
X245104Y11162
X245104Y20560
T03
X127171Y126779
X117381Y126779
X133733Y93283
T04
X159278Y119478
X100814Y75187
X235459Y75187
X293924Y119478
M30
